<?xml version="1.0" standalone="no"?>
<!DOCTYPE svg PUBLIC "-//W3C//DTD SVG 20010904//EN"
 "http://www.w3.org/TR/2001/REC-SVG-20010904/DTD/svg10.dtd">
<svg version="1.0" xmlns="http://www.w3.org/2000/svg"
 width="500.000000pt" height="500.000000pt" viewBox="0 0 500.000000 500.000000"
 preserveAspectRatio="xMidYMid meet">
<metadata>
Created by potrace 1.14, written by Peter Selinger 2001-2017
</metadata>
<g transform="translate(0.000000,500.000000) scale(0.100000,-0.100000)"
fill="#000000" stroke="none">
<path d="M0 2500 l0 -2500 2500 0 2500 0 0 2500 0 2500 -2500 0 -2500 0 0
-2500z m2738 1966 c94 -16 265 -58 313 -77 21 -8 25 -15 21 -39 -4 -31 21 -79
33 -61 3 6 15 11 26 11 13 0 19 -7 19 -24 0 -13 5 -26 11 -28 6 -2 13 -16 14
-32 4 -35 12 -43 27 -28 9 9 9 12 -1 12 -7 0 -3 9 10 19 13 11 27 15 30 10 3
-5 11 2 17 15 11 25 11 25 54 9 24 -9 57 -27 75 -40 17 -13 43 -23 57 -23 14
0 28 -4 31 -10 3 -5 20 -13 38 -18 18 -5 32 -15 32 -23 0 -9 9 -13 23 -12 13
2 36 -4 51 -12 16 -8 40 -16 54 -19 37 -6 82 -29 81 -41 0 -5 6 -16 14 -24 7
-8 12 -26 10 -41 -3 -23 -1 -26 22 -22 23 3 25 1 25 -40 0 -37 3 -43 21 -42
15 0 20 -5 17 -21 -3 -13 6 -31 26 -50 l30 -30 -21 -16 c-14 -11 -19 -22 -14
-34 6 -17 7 -17 21 1 14 18 14 18 15 -7 0 -14 3 -29 7 -33 11 -11 15 -94 4
-100 -15 -9 -41 22 -41 50 0 14 -6 24 -15 24 -7 0 -18 8 -24 18 -5 9 -26 26
-47 37 -20 11 -37 25 -37 30 0 15 -35 37 -47 30 -12 -7 -42 13 -36 24 3 3 -16
15 -40 25 -25 10 -44 25 -44 33 0 20 -40 55 -59 51 -8 -2 -16 -9 -19 -17 -3
-9 0 -11 7 -7 15 9 61 -20 61 -38 0 -16 98 -106 116 -106 6 0 14 -10 18 -22 4
-17 -1 -28 -17 -40 -12 -10 -27 -18 -32 -18 -18 0 -34 -21 -28 -36 4 -11 15
-13 39 -8 48 9 68 0 54 -25 -13 -25 6 -72 26 -64 10 3 14 -3 14 -18 0 -34 -11
-70 -20 -64 -4 2 -20 -9 -35 -25 -16 -17 -37 -30 -46 -30 -10 0 -19 -8 -21
-17 -3 -14 -8 -10 -21 15 -18 33 -37 43 -37 17 0 -8 -6 -12 -14 -9 -8 3 -22
-9 -36 -30 -13 -22 -30 -36 -41 -36 -11 0 -22 -7 -25 -15 -9 -21 15 -47 37
-40 16 5 17 2 9 -26 -5 -18 -13 -36 -17 -40 -14 -13 -86 -29 -97 -21 -6 3 -18
7 -26 9 -17 2 -97 -34 -106 -48 -10 -16 -31 8 -38 43 -4 19 -2 34 5 38 7 5 -1
27 -21 66 -40 73 -45 78 -37 37 7 -37 3 -42 -13 -13 -8 15 -6 28 9 56 11 21
26 41 33 45 7 4 10 11 6 14 -3 3 -18 -5 -33 -19 -16 -15 -33 -26 -40 -26 -7 0
-15 -9 -18 -20 -8 -31 -36 -24 -54 14 -9 19 -24 37 -34 39 -21 6 -26 27 -6 27
6 0 1 9 -13 20 -32 24 -23 33 20 17 26 -9 34 -9 37 0 3 7 20 15 38 19 21 4 37
13 40 25 4 10 12 19 20 19 7 0 15 7 19 15 6 16 26 21 26 6 0 -5 -7 -17 -16
-25 -24 -24 7 -21 37 3 19 16 22 22 12 32 -18 18 -16 26 8 32 11 3 19 11 18
19 -4 23 12 66 27 72 8 3 14 10 14 16 0 19 33 47 38 32 7 -23 23 -12 20 16 -2
22 1 28 22 30 20 3 23 1 13 -9 -7 -7 -13 -21 -13 -31 0 -10 -9 -27 -21 -39
-11 -11 -18 -23 -15 -26 9 -9 -14 -43 -29 -43 -9 0 -15 -10 -15 -25 0 -20 6
-25 35 -31 41 -7 55 -23 27 -31 -23 -5 -49 -53 -30 -53 9 0 9 -3 0 -12 -18
-18 -14 -27 9 -21 15 4 22 0 26 -16 3 -11 12 -21 19 -21 8 0 14 -4 14 -10 0
-29 73 30 75 60 2 26 -10 25 -30 -2 -13 -20 -17 -21 -25 -8 -14 22 -13 24 20
38 21 10 30 21 30 37 0 13 3 32 7 42 6 16 5 16 -10 4 -27 -22 -48 -7 -40 30 4
19 1 34 -6 38 -8 5 -7 17 6 42 9 19 16 46 14 61 -1 14 2 29 8 33 17 10 13 28
-4 21 -23 -8 -18 22 5 36 27 17 26 46 -2 50 -18 2 -23 10 -24 33 -1 17 -2 36
-3 43 -1 18 -36 10 -36 -8 -1 -19 -34 -70 -46 -70 -5 0 -9 5 -9 12 0 25 -51
57 -79 52 -22 -5 -31 0 -44 19 -9 14 -30 28 -46 32 -16 3 -32 12 -34 19 -4 10
-16 12 -49 5 -24 -4 -46 -8 -49 -9 -4 0 -9 -8 -11 -18 -4 -14 -15 -19 -39 -20
-39 -1 -79 -39 -80 -75 0 -12 -4 -31 -8 -41 -7 -18 -8 -18 -28 3 -15 16 -23
19 -28 11 -4 -7 -3 -15 2 -19 11 -7 12 -52 1 -45 -4 3 -8 0 -8 -5 0 -6 -7 -11
-15 -11 -8 0 -15 4 -15 8 0 5 -18 16 -40 25 -23 9 -40 22 -40 31 0 9 4 16 9
16 12 0 20 49 10 56 -5 3 -9 -2 -9 -10 0 -9 -6 -16 -12 -16 -7 0 -19 -4 -27
-9 -12 -8 -12 -12 -2 -24 8 -10 9 -17 1 -22 -16 -10 -32 5 -27 26 3 11 1 17
-4 13 -12 -7 -11 -1 1 31 9 25 8 26 -17 23 -35 -4 -40 25 -5 30 18 3 22 10 23
45 2 67 5 91 13 115 11 33 29 27 21 -7 -4 -21 -2 -30 11 -35 13 -5 14 -9 4
-21 -8 -9 -8 -20 -2 -31 5 -9 7 -26 4 -37 -4 -18 -2 -19 24 -13 15 4 44 23 62
42 32 33 33 36 18 53 -17 18 -22 56 -8 64 4 2 2 3 -4 1 -6 -1 -17 9 -23 23 -9
20 -16 24 -34 18 -12 -4 -32 -9 -44 -12 -12 -3 -25 -14 -29 -25 -3 -12 -12
-17 -20 -14 -11 4 -13 0 -8 -18 3 -13 1 -27 -5 -30 -12 -8 -37 34 -25 43 5 3
9 22 9 41 1 19 5 72 9 118 6 58 5 82 -3 82 -6 0 -11 -9 -11 -19 0 -23 -16 -36
-25 -21 -10 16 -91 12 -105 -5 -6 -8 -9 -18 -6 -24 3 -5 0 -21 -8 -36 -8 -15
-17 -22 -21 -16 -3 6 -3 16 1 23 4 7 3 8 -4 4 -7 -4 -12 -18 -12 -31 0 -24
-17 -35 -54 -35 -12 0 -27 -5 -34 -12 -9 -9 -17 -7 -35 10 -13 12 -30 22 -38
22 -8 0 -24 6 -34 14 -17 12 -17 16 -6 30 8 9 11 19 8 22 -10 11 -39 -5 -34
-19 8 -21 -23 -69 -40 -63 -9 4 -21 2 -27 -2 -18 -15 -55 -21 -58 -10 -4 11
-108 -37 -119 -54 -3 -5 -9 -2 -12 7 -5 10 -3 14 5 9 7 -4 8 -3 4 5 -11 17
-31 8 -31 -13 0 -14 -10 -19 -40 -23 -72 -9 -107 -7 -115 6 -5 8 -20 11 -43 8
-47 -6 -53 -11 -60 -47 -4 -16 -11 -30 -17 -30 -6 0 -8 5 -5 10 3 6 -1 10 -9
10 -8 0 -18 -4 -21 -10 -10 -16 -35 -12 -35 6 0 9 10 24 23 35 l22 18 -21 1
c-13 0 -24 -8 -27 -20 -3 -12 -14 -20 -26 -20 -12 0 -20 -5 -19 -11 3 -11 -9
-20 -56 -38 -27 -11 -28 -13 -10 -25 17 -13 17 -14 -4 -20 -12 -4 -22 -11 -22
-16 0 -5 -9 -12 -20 -15 -11 -3 -20 -13 -20 -22 0 -11 -5 -9 -19 8 -29 37 -35
66 -15 77 14 8 14 13 4 32 -10 18 -18 21 -51 18 -21 -2 -39 1 -39 6 0 5 -7 18
-16 27 -16 17 -15 19 10 29 15 5 32 10 37 10 5 0 78 33 162 74 224 110 458
179 688 205 117 13 425 6 537 -13z m-158 -127 c0 -5 -11 -9 -25 -9 -24 0 -32
10 -19 22 8 8 44 -3 44 -13z m726 -66 c-3 -3 -12 -1 -19 5 -8 7 -16 9 -20 6
-8 -8 -67 28 -61 37 2 4 27 -4 55 -17 28 -14 49 -28 45 -31z m-812 -53 c38
-14 24 -37 -20 -32 -20 3 -46 -1 -59 -8 -13 -7 -40 -10 -62 -8 -46 6 -105 -20
-129 -58 -11 -17 -24 -24 -36 -21 -25 7 -30 -6 -28 -71 1 -31 1 -67 1 -79 0
-12 4 -25 9 -28 6 -3 10 -14 9 -23 0 -11 -3 -12 -6 -4 -2 6 -17 12 -33 12 -33
0 -122 37 -133 56 -9 16 -37 19 -37 5 0 -14 -73 -19 -92 -7 -10 6 -18 16 -18
23 0 7 -5 13 -11 13 -6 0 -9 7 -5 15 3 8 1 27 -4 41 -15 38 3 54 54 52 23 0
52 4 65 11 12 7 30 10 38 7 9 -4 22 -1 29 5 10 8 14 8 14 0 0 -17 37 -13 44 5
3 8 1 24 -4 34 -14 27 -13 30 13 30 16 0 18 3 8 9 -8 5 -9 11 -3 15 16 10 22
-7 23 -63 1 -41 5 -51 18 -51 9 0 22 5 29 12 9 9 12 9 12 -1 0 -7 5 -9 10 -6
6 4 8 10 5 15 -7 12 20 39 65 66 43 25 95 40 85 24 -7 -11 28 -6 70 11 28 11
49 11 79 -1z m96 -47 c0 -20 -4 -23 -21 -18 -19 6 -20 5 -8 -17 11 -21 11 -22
-4 -9 -15 12 -17 11 -17 -7 0 -29 -14 -35 -34 -13 -15 16 -15 22 -4 40 7 12
18 21 25 21 7 0 18 9 25 19 15 25 38 16 38 -16z m-1307 -13 c3 -11 1 -18 -3
-15 -18 11 -32 -35 -21 -67 14 -41 14 -48 -4 -48 -8 0 -12 -6 -9 -14 5 -14
-20 -46 -37 -46 -5 0 -3 -10 6 -23 19 -30 3 -68 -38 -92 -16 -10 -27 -24 -25
-34 2 -9 -8 -30 -21 -46 l-24 -30 7 27 c3 14 9 34 13 44 4 10 -25 -13 -64 -51
-53 -50 -73 -77 -78 -103 -3 -19 -10 -42 -15 -51 -4 -9 -14 -35 -20 -58 -7
-23 -19 -44 -26 -47 -8 -3 -14 -12 -14 -21 0 -8 -11 -20 -25 -25 -26 -10 -36
-52 -15 -65 16 -10 -8 -45 -30 -45 -22 0 -35 -16 -20 -25 16 -10 12 -33 -12
-55 -15 -14 -22 -31 -21 -55 1 -19 -3 -35 -8 -35 -5 0 -9 -10 -9 -22 l1 -23
19 24 c19 22 20 22 20 3 0 -18 -24 -37 -41 -34 -4 1 -5 -8 -2 -19 3 -12 0 -24
-6 -29 -7 -4 -15 -25 -18 -46 -5 -38 -7 -40 -42 -39 -36 0 -36 0 -36 41 0 26
-7 49 -17 61 -10 11 -18 26 -18 34 -1 8 -7 3 -14 -11 -8 -14 -12 -28 -10 -31
2 -4 -3 -20 -11 -35 -8 -16 -15 -37 -15 -47 0 -15 -3 -16 -20 -7 -17 9 -20 8
-20 -9 0 -11 -4 -22 -9 -25 -5 -3 -11 -18 -14 -33 -5 -26 -4 -26 9 -8 8 10 14
26 14 34 0 11 3 12 11 4 8 -8 7 -17 -2 -34 -8 -13 -14 -35 -14 -49 0 -15 -5
-24 -12 -23 -10 2 -13 -17 -11 -75 0 -42 3 -62 5 -44 5 37 28 43 37 10 4 -17
-2 -30 -19 -46 -45 -41 -29 -57 36 -37 24 7 37 14 28 14 -23 1 -31 48 -10 64
9 7 18 21 19 32 2 11 8 24 13 30 13 13 11 36 -6 69 -11 21 -12 32 -4 42 6 7 8
17 6 21 -3 5 10 7 29 5 20 -3 34 -10 34 -18 0 -8 -4 -14 -9 -14 -22 0 -31
-139 -11 -165 10 -14 21 -120 14 -139 -3 -9 -10 -13 -15 -10 -15 9 -10 -25 7
-51 17 -27 16 -100 -3 -100 -6 0 -15 -4 -20 -9 -5 -5 -3 -6 5 -2 9 5 15 1 19
-13 4 -17 8 -19 19 -10 16 13 34 4 34 -17 0 -8 -4 -12 -10 -9 -5 3 -10 -3 -10
-15 0 -11 -9 -34 -21 -49 -17 -24 -19 -32 -9 -50 8 -17 8 -31 -1 -58 -10 -30
-9 -38 3 -47 16 -12 13 -86 -3 -86 -5 0 -9 4 -9 8 0 11 -46 32 -70 32 -11 0
-20 -6 -21 -12 0 -10 -2 -10 -6 0 -2 6 -9 10 -14 6 -5 -3 -9 0 -9 6 0 7 7 10
15 6 17 -6 20 12 5 34 -9 13 -11 13 -20 0 -13 -20 -12 -37 2 -76 13 -38 53
-53 61 -22 3 10 14 18 26 18 18 0 21 -6 20 -42 -2 -60 21 -149 35 -141 8 5 8
3 0 -8 -21 -26 -14 -65 16 -82 32 -20 44 -11 53 41 5 23 2 37 -11 51 -43 45
-48 105 -12 146 10 11 24 40 31 65 7 25 17 51 22 57 5 7 7 20 3 28 -7 19 19
62 43 70 12 3 18 18 20 47 1 23 4 45 7 50 3 4 1 8 -4 8 -5 0 -7 12 -4 28 5 26
4 26 -15 10 -21 -19 -53 -24 -53 -9 0 5 7 11 15 15 8 3 15 12 15 20 0 19 -23
33 -28 18 -2 -7 -8 -12 -13 -12 -4 0 -6 7 -3 15 4 8 12 15 20 15 8 0 14 9 14
19 0 11 4 22 8 25 5 3 8 36 8 73 -1 56 -4 68 -18 71 -13 2 -18 -3 -18 -18 0
-12 -4 -18 -10 -15 -13 8 -13 58 -1 70 21 21 48 115 54 187 1 15 10 33 19 40
20 15 36 108 19 108 -19 0 -13 85 8 111 10 13 22 35 26 49 4 14 15 43 25 65 9
22 22 51 28 65 7 17 11 19 11 8 1 -12 9 -16 31 -16 24 1 28 4 19 14 -6 8 -9
21 -5 29 3 8 1 15 -4 15 -15 0 -12 44 5 76 16 32 2 62 -15 34 -9 -13 -10 -13
-10 0 0 28 31 62 52 57 21 -6 21 -1 2 76 -5 22 -2 31 15 43 11 8 21 21 21 28
0 18 21 35 36 29 17 -6 18 -50 2 -56 -7 -2 -10 -7 -7 -11 4 -4 17 -2 30 3 54
21 65 25 79 25 8 1 16 10 18 21 7 37 34 57 67 51 36 -7 68 9 46 23 -15 10 -5
35 10 26 5 -4 18 -3 29 0 16 5 20 15 20 56 0 27 5 49 10 49 6 0 10 -6 11 -12
0 -7 4 -3 9 10 l9 22 27 -22 c20 -18 22 -24 10 -26 -24 -5 -19 -29 6 -36 25
-6 52 13 31 21 -7 3 -13 14 -13 24 0 11 -5 29 -11 40 -12 24 8 45 54 55 15 4
27 10 27 15 0 5 15 7 33 5 24 -3 36 1 48 16 l17 21 43 -20 c37 -17 46 -18 67
-7 26 13 47 10 37 -6 -3 -5 -12 -7 -20 -3 -33 12 -13 -24 23 -42 l37 -18 -43
-8 c-51 -10 -62 -16 -62 -35 0 -8 -4 -13 -9 -9 -5 3 -13 0 -16 -6 -4 -6 -18
-8 -34 -4 -23 6 -24 5 -9 -7 17 -13 19 -32 6 -53 -11 -18 -22 -80 -19 -109 3
-31 58 -109 72 -101 4 3 11 0 15 -6 3 -6 1 -15 -6 -19 -10 -6 -8 -17 10 -46
28 -44 30 -81 7 -115 -16 -22 -16 -24 -2 -27 21 -5 55 26 55 48 0 10 -7 23
-15 30 -11 9 -12 16 -4 26 8 10 7 19 -5 36 -24 35 -21 52 7 36 21 -12 27 -14
45 -17 5 0 18 -10 31 -22 17 -16 25 -18 36 -9 7 6 15 7 18 3 9 -15 -5 -64 -22
-72 -10 -6 -17 -21 -16 -40 0 -43 19 -39 23 4 2 22 8 35 18 35 8 0 14 5 14 10
0 7 7 7 21 0 25 -14 32 -9 33 27 1 21 7 29 23 31 15 2 20 8 16 19 -5 13 -3 14
15 4 28 -15 29 -41 2 -41 -21 0 -27 -15 -10 -25 6 -4 18 -1 27 7 12 9 15 9 9
1 -10 -18 26 -4 40 15 18 25 26 -15 10 -51 -32 -73 -45 -134 -26 -122 13 8 13
-8 0 -21 -7 -7 -6 -23 4 -51 11 -30 11 -44 3 -52 -8 -8 -5 -11 11 -11 28 0 92
-26 92 -37 -1 -26 -17 -33 -49 -22 -25 9 -30 14 -19 21 8 6 -2 7 -29 3 -37 -6
-43 -4 -58 19 -9 14 -14 29 -11 35 7 10 -97 121 -113 121 -12 0 -2 -32 13 -42
7 -5 6 -8 -3 -8 -11 0 -11 -4 2 -18 10 -10 14 -21 11 -25 -8 -8 -64 44 -64 59
0 5 -13 23 -29 38 -26 25 -37 28 -101 30 -51 1 -79 -3 -98 -15 -23 -13 -30
-14 -40 -3 -7 7 -12 17 -12 22 0 5 -7 9 -15 9 -8 0 -12 -3 -10 -7 2 -3 -2 -18
-10 -33 -8 -16 -10 -29 -4 -33 5 -3 8 -1 7 4 -2 6 1 12 7 14 22 8 15 -37 -13
-70 -50 -64 -64 -144 -28 -164 9 -5 13 -15 10 -23 -4 -8 -1 -15 6 -15 6 0 10
-8 8 -17 -5 -27 61 -84 91 -78 13 2 21 2 18 -1 -3 -3 7 -19 22 -35 27 -28 31
-29 90 -23 l61 7 0 -55 c0 -38 5 -60 15 -68 9 -7 14 -19 11 -26 -3 -7 8 -27
24 -44 36 -39 33 -81 -5 -66 -12 4 -14 10 -6 25 9 15 6 22 -13 35 -14 8 -27
24 -30 34 -9 27 -49 42 -111 42 -30 0 -55 5 -55 10 0 6 -11 10 -24 10 -13 0
-29 7 -36 15 -7 8 -28 15 -46 15 -24 0 -34 5 -34 15 0 9 -9 15 -25 15 -14 0
-25 -4 -25 -10 0 -5 -4 -10 -10 -10 -5 0 -10 14 -10 30 0 27 3 30 24 24 30 -7
42 27 17 49 -24 22 -58 5 -69 -35 -4 -19 -17 -37 -30 -43 -12 -5 -20 -15 -17
-22 2 -8 -7 -15 -23 -19 -47 -10 -53 -14 -46 -25 8 -13 -23 -8 -73 12 -32 13
-115 12 -124 -2 -10 -17 -38 2 -36 24 0 12 11 40 23 62 27 50 35 106 15 113
-11 4 -13 -3 -8 -31 5 -29 1 -39 -24 -63 -19 -18 -27 -34 -23 -46 3 -10 2 -18
-3 -18 -4 0 -9 -11 -9 -25 -1 -15 3 -25 12 -25 18 0 18 -19 0 -26 -14 -5 -41
-11 -58 -13 -5 -1 -7 -7 -5 -13 1 -7 -6 -12 -16 -12 -10 1 -19 -7 -23 -22 -4
-14 -16 -31 -27 -39 -14 -9 -21 -26 -21 -49 -1 -19 -4 -32 -7 -30 -4 2 -6 -14
-5 -36 0 -22 4 -40 9 -40 4 0 7 -7 7 -15 0 -9 6 -18 14 -21 8 -3 12 -12 9 -20
-3 -8 5 -18 22 -24 37 -14 55 -12 55 5 0 12 4 13 19 6 17 -10 18 -8 6 27 -14
40 -12 53 7 34 23 -23 28 -12 7 17 -27 37 -21 55 40 115 61 60 166 102 197 79
15 -11 16 -13 2 -13 -21 0 -28 -20 -16 -43 7 -13 5 -26 -6 -42 -9 -14 -16 -31
-16 -39 0 -16 -120 -130 -128 -121 -3 3 4 12 16 21 12 8 22 22 22 31 0 9 7 21
17 28 14 11 13 13 -10 17 -24 5 -26 3 -20 -20 5 -21 3 -24 -10 -19 -9 3 -19 2
-22 -3 -4 -6 0 -10 7 -10 7 -1 -1 -7 -18 -14 -18 -8 -35 -20 -39 -27 -5 -8 -4
-10 3 -5 7 4 12 2 12 -4 0 -6 6 -8 13 -4 6 4 1 -4 -13 -17 -14 -13 -27 -21
-28 -16 -2 4 -8 5 -13 1 -5 -3 -7 -10 -4 -15 8 -12 52 -12 60 1 3 6 13 10 21
10 8 0 12 -4 9 -10 -4 -6 10 -10 34 -10 28 0 41 4 41 14 0 9 8 12 28 8 24 -5
26 -4 13 11 -9 11 -10 17 -2 17 6 0 11 5 11 11 0 7 14 25 31 41 24 23 29 35
24 55 -12 50 17 86 34 41 11 -29 -3 -65 -35 -95 -14 -13 -22 -27 -19 -33 10
-16 35 1 52 34 9 17 20 34 25 37 5 3 9 29 10 57 0 55 27 113 28 59 0 -15 4
-35 9 -45 5 -9 12 -25 15 -35 3 -11 15 -21 26 -24 11 -3 20 -10 20 -15 0 -14
61 -71 93 -88 20 -10 24 -16 15 -23 -9 -6 -7 -7 6 -3 21 7 86 -11 86 -24 0
-16 45 -20 57 -4 6 9 29 18 51 21 46 6 56 21 74 119 9 45 17 64 28 64 27 0 43
-17 37 -39 -3 -12 -1 -21 4 -21 5 0 9 6 9 13 0 9 2 9 8 -1 5 -7 16 -10 24 -7
20 8 30 -8 34 -54 2 -20 5 -52 6 -71 2 -19 -2 -45 -10 -58 -17 -30 0 -65 31
-60 16 2 25 16 36 53 9 28 18 52 22 55 4 3 11 18 14 33 4 15 11 27 15 27 4 0
10 7 14 15 4 10 -1 15 -14 15 -11 0 -20 -7 -20 -15 0 -19 -43 -20 -59 -1 -9
10 -8 16 4 26 8 7 15 18 15 26 0 20 21 28 31 13 7 -11 9 -11 9 2 0 9 7 22 15
29 10 9 15 9 15 1 0 -6 5 -11 11 -11 5 0 8 4 4 9 -3 5 5 13 17 17 15 4 25 1
34 -12 8 -11 17 -24 22 -30 53 -62 78 -136 64 -188 -8 -30 -32 -48 -32 -24 0
15 -46 68 -59 68 -20 0 -60 -28 -94 -65 -39 -42 -46 -58 -23 -49 18 7 29 -25
15 -42 -6 -8 -20 -14 -30 -14 -14 0 -19 -7 -19 -25 0 -28 2 -29 28 -16 99 48
111 57 117 80 4 14 12 29 18 33 9 6 8 11 -3 18 -11 7 -12 10 -2 10 23 0 46
-30 33 -43 -18 -18 -13 -27 18 -27 36 0 91 51 91 85 0 14 7 25 19 28 13 3 22
17 26 40 4 20 16 43 26 53 10 9 19 21 19 26 0 14 -40 9 -46 -7 -4 -8 -13 -15
-21 -15 -12 0 -14 9 -9 43 6 40 5 44 -21 56 -21 10 -24 14 -13 21 8 5 25 7 37
3 19 -4 23 -1 23 16 0 26 9 27 26 4 10 -14 17 -16 31 -7 14 9 21 6 37 -13 15
-20 17 -29 7 -49 -6 -14 -9 -30 -6 -35 4 -5 -1 -9 -9 -9 -9 0 -16 -4 -16 -9 0
-4 22 -4 50 2 29 6 47 14 43 20 -4 6 2 8 13 5 22 -5 33 4 51 42 9 18 12 20 12
8 1 -25 15 -22 30 6 8 13 31 32 54 42 22 10 53 31 68 47 27 27 29 27 29 7 0
-11 11 -32 25 -46 39 -39 30 -64 -14 -36 l-26 17 17 -27 c11 -16 14 -29 8 -33
-18 -11 -11 -35 10 -35 11 0 20 -7 20 -15 0 -8 -4 -15 -10 -15 -5 0 -10 -7
-10 -16 0 -14 3 -14 16 -3 13 10 17 10 24 0 4 -7 10 -9 12 -5 9 16 6 104 -3
104 -13 0 21 35 47 48 21 11 34 7 34 -10 0 -4 -4 -8 -10 -8 -5 0 -19 -9 -30
-20 -15 -15 -16 -20 -6 -20 8 0 23 -3 33 -7 15 -6 16 -5 5 9 -11 14 -10 19 9
31 21 15 24 14 58 -22 20 -21 52 -46 70 -56 19 -9 29 -20 24 -24 -15 -9 -14
-76 1 -96 14 -19 36 -13 36 11 0 8 5 14 10 14 6 0 15 11 20 25 7 19 17 25 39
25 29 0 47 -22 35 -41 -3 -6 -1 -16 5 -23 8 -10 -1 -20 -38 -44 -52 -34 -65
-54 -56 -83 4 -13 1 -19 -9 -19 -18 0 -28 -15 -32 -47 -1 -13 -17 -56 -36 -94
-27 -57 -38 -71 -60 -76 -15 -3 -25 -9 -22 -14 6 -11 1 -11 -20 -3 -19 7 -22
40 -4 46 7 3 3 15 -12 35 -16 22 -21 39 -16 56 3 14 0 37 -9 53 -19 37 -19 74
-1 74 20 0 28 16 32 58 3 37 -22 86 -38 76 -6 -4 -7 -25 -3 -50 4 -29 2 -44
-4 -44 -6 0 -11 -8 -12 -17 0 -10 -9 1 -19 25 -15 33 -24 42 -45 42 -25 0 -28
4 -29 49 -1 26 -26 43 -26 17 0 -10 -9 -16 -21 -16 -18 0 -20 -4 -15 -27 l6
-28 -14 25 c-9 14 -13 32 -10 41 8 28 -12 64 -37 66 -12 1 -27 9 -31 18 -5 8
-14 15 -20 15 -7 0 -7 -4 1 -13 6 -8 8 -17 4 -21 -4 -4 -1 -12 7 -17 11 -7 3
-9 -27 -7 -22 1 -47 -3 -55 -9 -7 -6 -23 -14 -34 -17 -12 -4 -42 -26 -67 -49
-42 -39 -45 -46 -52 -109 -3 -37 -4 -72 0 -78 3 -5 -1 -10 -11 -10 -14 0 -16
-7 -11 -42 4 -32 2 -45 -11 -54 -23 -17 -9 -28 18 -14 27 15 29 12 19 -25 -13
-49 -89 -83 -89 -41 0 8 -6 19 -14 26 -8 6 -12 19 -9 27 4 9 -1 21 -12 29 -10
7 -23 23 -29 35 -16 33 -36 35 -36 5 0 -32 -34 -43 -89 -29 -21 6 -45 7 -52 3
-8 -4 -38 -11 -68 -15 -49 -7 -98 -35 -84 -49 3 -3 -2 -8 -11 -12 -10 -4 -16
-18 -16 -36 0 -17 4 -27 10 -23 6 3 10 2 10 -3 0 -6 -7 -12 -15 -16 -18 -7
-37 25 -25 44 4 7 7 22 5 32 -2 10 1 18 6 18 6 0 7 5 4 10 -3 6 0 10 8 10 8 0
22 9 32 20 18 20 17 20 -11 22 -16 0 -40 0 -53 -1 -17 -2 -22 2 -18 13 3 8 2
18 -3 21 -7 4 -6 13 0 26 9 17 4 22 -42 43 -30 14 -62 34 -72 45 -11 12 -25
21 -32 21 -7 0 -14 6 -17 13 -3 9 -8 9 -21 -2 -9 -8 -20 -11 -23 -7 -4 4 -1
12 7 17 11 8 6 9 -20 5 -19 -3 -61 -8 -92 -12 -63 -7 -117 -43 -144 -95 -20
-40 -19 -145 2 -153 13 -5 15 -16 12 -51 -3 -25 -2 -45 2 -45 4 0 11 -7 14
-15 6 -17 -50 -102 -65 -97 -17 4 -9 -39 8 -45 9 -4 27 -18 40 -32 l22 -26 1
57 c0 48 3 58 20 63 11 4 29 0 42 -9 12 -9 16 -16 9 -16 -9 0 -12 -8 -9 -25 4
-19 -7 -37 -54 -87 -74 -77 -58 -91 17 -15 59 59 172 121 203 110 9 -3 30 -18
45 -32 22 -20 30 -23 36 -12 5 8 14 10 21 6 9 -5 11 -4 6 4 -4 6 -16 9 -26 6
-29 -9 -38 33 -11 52 12 8 19 19 16 24 -4 5 1 9 9 9 9 0 16 7 16 15 0 12 13
15 55 15 42 0 55 3 55 15 0 8 5 15 10 15 9 0 14 -34 11 -72 -2 -21 24 -75 50
-104 21 -23 20 -61 -1 -74 -8 -5 -11 -12 -7 -16 3 -4 14 -1 23 6 13 12 17 11
25 -1 5 -8 8 -24 6 -36 -2 -12 0 -20 4 -17 5 3 9 -4 9 -15 0 -29 17 -26 24 4
7 29 18 32 36 10 9 -11 23 -14 49 -9 l36 5 -35 -30 -35 -30 43 -1 c47 0 86 15
77 31 -4 5 -2 9 3 9 13 0 52 -36 52 -48 0 -6 10 -14 23 -18 19 -7 17 -9 -18
-15 -30 -5 -44 -3 -59 10 -21 19 -128 21 -134 2 -2 -6 -10 -11 -18 -11 -9 0
-12 5 -9 10 10 16 -11 12 -55 -11 -24 -13 -39 -27 -36 -34 3 -8 -6 -15 -22
-18 -15 -3 -46 -24 -69 -47 -44 -44 -45 -50 -11 -113 6 -12 10 -41 9 -65 -1
-50 7 -71 21 -51 7 11 8 9 4 -5 -8 -23 26 -79 68 -111 17 -13 68 -36 114 -50
73 -23 82 -29 82 -50 0 -13 5 -27 10 -30 6 -4 9 -1 8 6 -4 14 47 33 67 25 27
-10 17 -46 -15 -57 -16 -6 -30 -14 -30 -19 0 -4 -10 -11 -22 -15 -22 -7 -21
-8 7 -14 32 -8 69 4 60 20 -4 5 0 9 8 9 18 0 33 -33 18 -38 -6 -2 -11 -11 -11
-21 0 -9 -5 -22 -12 -29 -9 -9 -8 -12 6 -12 11 0 25 8 32 18 14 18 14 19 18
-30 2 -20 -76 -19 -92 1 -7 9 -10 10 -6 2 5 -10 -2 -12 -32 -8 -66 9 -118 25
-130 41 -6 9 -16 16 -23 16 -6 0 -11 4 -11 9 0 17 19 22 40 11 28 -15 55 -5
68 25 10 21 9 24 -11 23 -12 0 -37 -5 -56 -10 -24 -8 -35 -7 -41 2 -5 9 -13 9
-27 1 -27 -14 -77 -7 -105 14 -15 12 -17 15 -5 12 24 -9 22 10 -3 23 -11 6
-20 19 -20 30 0 23 -12 31 -28 21 -9 -6 -7 -14 8 -34 25 -31 18 -51 -16 -44
-28 5 -30 1 -9 -19 21 -21 19 -37 -4 -31 -14 3 -21 -2 -25 -17 -4 -11 -15 -32
-27 -45 -17 -21 -22 -22 -30 -10 -8 12 -11 12 -22 -2 -24 -31 -81 15 -90 74
-6 39 7 52 16 16 7 -27 29 -15 25 14 -3 20 1 22 35 19 32 -2 37 0 37 18 0 11
5 20 10 20 6 0 10 -7 10 -15 0 -9 9 -15 23 -15 34 0 50 15 42 39 -5 16 -14 21
-39 21 -17 0 -36 -4 -42 -10 -7 -7 -10 4 -9 33 0 36 3 42 23 45 15 2 22 -2 22
-12 0 -21 36 -21 48 0 9 17 -15 84 -30 84 -5 0 -33 -13 -64 -30 -42 -22 -65
-28 -95 -25 -22 2 -37 0 -34 -5 2 -4 -2 -14 -11 -21 -8 -7 -22 -25 -30 -41 -8
-16 -27 -33 -41 -39 -28 -11 -67 -3 -58 12 4 5 -1 9 -9 9 -10 0 -13 6 -10 15
4 10 0 15 -15 15 -12 0 -21 -6 -21 -12 0 -7 -5 -5 -11 5 -7 12 -15 15 -22 9
-7 -4 -29 -9 -49 -11 -28 -2 -44 4 -65 23 -15 14 -38 26 -50 26 -13 0 -23 4
-23 9 0 5 -9 7 -19 4 -17 -4 -13 -11 27 -49 32 -31 51 -42 64 -38 19 6 25 -10
8 -21 -8 -5 -8 -11 0 -20 8 -10 7 -14 -2 -18 -16 -5 34 -62 73 -82 14 -8 26
-21 26 -29 0 -22 -10 -20 -41 9 -15 14 -31 25 -35 25 -26 0 -281 238 -371 346
-54 65 -57 72 -39 77 16 4 40 -14 107 -81 52 -51 94 -85 104 -83 12 1 19 -7
24 -26 9 -44 12 -50 13 -26 1 14 8 23 23 25 13 2 24 11 26 20 3 14 -3 18 -28
18 -50 0 -71 16 -63 48 3 15 15 35 26 44 19 17 16 38 -7 38 -7 0 -21 9 -31 20
-10 11 -24 20 -30 20 -16 0 -37 25 -28 33 3 4 21 -3 40 -14 26 -16 37 -19 46
-10 8 8 6 11 -8 12 -11 0 -14 3 -7 6 6 2 10 9 6 14 -9 15 22 39 50 39 13 0 31
-7 39 -15 8 -8 17 -11 21 -8 10 10 36 -18 36 -39 0 -11 9 -22 20 -25 21 -5 29
-43 9 -43 -6 0 -1 -12 10 -26 12 -15 21 -32 21 -40 0 -7 6 -15 13 -17 7 -3 4
-6 -6 -6 -14 -1 -17 -6 -12 -23 10 -33 20 -41 45 -33 18 6 19 9 8 23 -11 14
-10 15 12 9 14 -4 33 -7 43 -7 10 0 16 -4 12 -9 -5 -9 29 -35 47 -36 4 0 16
-10 28 -22 11 -13 30 -23 40 -23 21 0 27 15 10 25 -15 9 -12 25 5 25 8 0 15
-7 15 -15 0 -8 5 -15 12 -15 6 0 9 3 6 6 -4 3 0 21 8 40 14 34 14 35 -5 25
-16 -9 -19 -7 -24 14 -4 26 7 43 18 26 3 -6 13 -7 22 -4 11 4 14 3 9 -5 -4 -7
-1 -12 9 -12 9 0 13 -4 10 -10 -3 -5 -1 -10 5 -10 16 0 8 31 -12 52 -20 20
-33 24 -22 6 4 -7 3 -8 -5 -4 -17 11 -5 24 32 31 17 4 38 12 45 17 8 7 16 7
25 0 14 -12 67 -4 67 10 0 5 20 51 45 101 25 51 45 102 45 114 0 20 24 38 39
29 4 -3 7 18 7 45 0 31 5 54 13 58 19 12 4 53 -17 49 -11 -2 -18 -15 -20 -36
-3 -33 -32 -47 -32 -16 0 9 -7 22 -16 28 -13 10 -20 28 -23 59 -1 4 -11 7 -23
7 -13 0 -32 7 -42 15 -25 19 -46 19 -46 1 0 -23 -11 -25 -77 -17 -42 5 -61 4
-60 -3 1 -6 -6 -11 -15 -11 -10 0 -23 -8 -30 -17 -7 -9 -39 -27 -71 -40 -67
-28 -87 -56 -76 -108 4 -19 7 -35 6 -35 -1 -1 -19 -13 -39 -28 -37 -27 -72
-34 -97 -18 -8 5 -27 5 -44 0 -17 -5 -33 -6 -36 -4 -8 9 8 18 33 18 30 0 44
27 20 40 -14 8 -12 13 13 39 35 38 63 49 82 34 12 -9 14 -8 9 4 -3 9 3 26 13
39 15 18 19 19 19 7 0 -9 4 -16 10 -16 6 0 6 9 1 23 -5 12 -15 22 -22 22 -8 0
-14 5 -14 12 0 6 -3 15 -7 19 -5 4 -8 19 -8 33 0 14 -4 32 -9 40 -8 13 -12 13
-27 0 -13 -11 -18 -11 -21 -1 -3 6 -11 12 -19 12 -7 0 -11 6 -9 13 8 20 -31
38 -60 27 -30 -11 -35 -34 -5 -25 26 8 44 -3 31 -18 -5 -7 -10 -16 -10 -22 -1
-5 -8 -10 -15 -10 -8 0 -18 -4 -22 -8 -11 -11 -74 -8 -111 5 -28 10 -36 10
-49 -4 -14 -14 -15 -20 -3 -47 8 -17 20 -31 26 -31 7 0 13 -4 13 -10 0 -5 6
-10 14 -10 8 0 18 -17 24 -37 7 -29 10 -32 11 -14 1 13 4 21 8 17 15 -15 10
-40 -13 -63 -13 -13 -24 -19 -24 -13 0 14 -43 13 -58 -2 -7 -7 -12 -8 -12 -2
0 5 -10 10 -22 11 -11 1 -25 8 -30 15 -6 10 -10 7 -14 -9 -6 -20 -21 -28 -47
-24 -4 0 -6 -5 -5 -11 2 -7 -4 -13 -12 -13 -8 0 -18 -4 -22 -9 -12 -17 4 -36
29 -36 22 0 23 -1 8 -16 -8 -9 -13 -24 -11 -33 11 -37 14 -71 6 -76 -14 -8
-48 47 -137 224 -105 207 -143 298 -187 448 -94 325 -106 665 -35 998 46 213
150 460 273 650 31 47 67 107 80 133 16 32 84 104 216 232 106 102 198 190
204 197 6 7 12 12 12 13 1 0 4 -9 7 -20z m1383 -52 c4 -6 0 -17 -10 -23 -10
-8 -14 -20 -10 -31 4 -15 4 -16 -4 -4 -11 17 -4 70 9 70 4 0 11 -5 15 -12z
m124 -38 c6 -21 3 -26 -11 -27 -11 -1 -19 4 -19 12 0 7 -3 21 -6 30 -5 13 -2
16 11 14 10 -2 22 -15 25 -29z m-110 -6 c0 -8 -5 -12 -10 -9 -6 4 -8 11 -5 16
9 14 15 11 15 -7z m-905 -32 c-8 -8 -25 10 -19 20 4 6 9 5 15 -3 4 -7 6 -15 4
-17z m-427 -30 c2 -13 -2 -22 -9 -22 -7 0 -26 -12 -42 -27 l-30 -28 7 30 c16
68 67 100 74 47z m1232 -4 c0 -5 -4 -8 -10 -8 -5 0 -10 10 -10 23 0 18 2 19
10 7 5 -8 10 -18 10 -22z m1239 -2 c-3 -3 -11 5 -18 17 -13 21 -12 21 5 5 10
-10 16 -20 13 -22z m-1419 5 c13 -25 -16 -60 -34 -40 -8 8 -8 13 2 16 6 3 12
13 12 24 0 24 7 24 20 0z m104 -2 c-6 -11 -24 -2 -24 11 0 5 7 7 15 4 8 -4 12
-10 9 -15z m-160 -16 c-7 -2 -10 -13 -7 -23 3 -11 1 -20 -5 -20 -16 0 -20 23
-9 48 8 17 13 20 21 11 8 -8 8 -13 0 -16z m196 -5 c0 -6 6 -19 14 -27 8 -9 17
-32 21 -51 5 -28 2 -39 -12 -52 -18 -17 -19 -15 -18 35 0 33 -4 52 -12 52 -6
0 -15 3 -19 8 -4 4 -2 7 5 7 7 0 9 9 5 26 -5 19 -4 25 5 20 6 -4 11 -12 11
-18z m671 -45 c11 -15 11 -16 0 -6 -7 6 -20 9 -29 6 -10 -4 -13 -2 -8 5 10 17
21 15 37 -5z m-1901 -13 c0 -5 -4 -10 -10 -10 -5 0 -10 5 -10 10 0 6 5 10 10
10 6 0 10 -4 10 -10z m730 -49 c0 -6 -4 -12 -9 -15 -5 -3 -7 -15 -4 -26 3 -11
1 -20 -5 -20 -14 0 -22 54 -9 62 16 10 27 10 27 -1z m54 3 c9 -3 24 -23 33
-43 9 -20 19 -40 22 -46 2 -5 -4 -3 -14 5 -17 14 -18 14 -7 -7 15 -27 15 -36
2 -28 -5 3 -10 -2 -10 -12 0 -15 -2 -15 -9 -4 -8 12 -11 9 -17 -13 -4 -18 -12
-26 -23 -23 -9 2 -15 9 -13 17 2 8 -2 34 -9 59 -11 38 -10 45 4 56 20 14 22
31 5 38 -8 4 -7 6 4 6 9 1 24 -2 32 -5z m1070 -1 c4 -5 24 -8 44 -8 32 0 37
-3 40 -25 2 -24 2 -24 -12 -6 -13 16 -17 17 -36 3 -21 -14 -20 -15 21 -28 27
-9 45 -22 50 -37 6 -15 5 -21 -1 -17 -10 6 -12 0 -14 -40 -1 -17 -7 -20 -41
-18 l-40 2 30 -13 30 -13 -27 -5 c-16 -3 -28 -1 -28 3 0 5 -13 9 -30 9 -20 0
-30 5 -30 15 0 18 26 20 33 3 3 -9 7 -6 13 6 5 13 3 21 -4 24 -14 4 -16 32 -3
32 6 0 2 24 -9 54 -17 50 -17 66 0 66 4 0 10 -3 14 -7z m-824 -18 c0 -9 -6
-12 -15 -9 -8 4 -15 10 -15 15 0 5 7 9 15 9 8 0 15 -7 15 -15z m-963 -1 c-3
-3 -12 -4 -19 -1 -8 3 -5 6 6 6 11 1 17 -2 13 -5z m2565 -6 c-6 -6 -8 -18 -5
-27 5 -13 3 -13 -15 3 -25 22 -22 31 9 33 16 1 19 -1 11 -9z m-2695 -13 c1 -5
-2 -17 -7 -25 -9 -13 -11 -13 -20 0 -15 23 -12 42 7 38 9 -2 18 -7 20 -13z
m723 5 c0 -5 -4 -10 -10 -10 -5 0 -10 5 -10 10 0 6 5 10 10 10 6 0 10 -4 10
-10z m250 1 c0 -24 82 -73 139 -83 56 -11 60 -13 55 -35 -4 -14 -2 -23 5 -23
6 0 16 -11 21 -25 10 -25 43 -34 55 -15 10 16 21 12 35 -15 10 -19 10 -27 1
-39 -16 -19 -41 -10 -41 14 0 16 -5 17 -41 9 -58 -13 -81 -5 -69 27 8 20 7 24
-10 24 -19 0 -34 -16 -35 -35 0 -22 -22 -44 -59 -59 -38 -16 -39 -17 -20 -32
10 -8 14 -13 7 -9 -7 3 -18 -3 -25 -15 -7 -11 -15 -20 -19 -20 -3 0 -12 23
-19 51 -8 27 -18 52 -22 55 -15 10 -8 62 13 88 18 23 21 37 17 87 -2 32 -1 59
4 59 4 0 8 -4 8 -9z m-830 -21 c0 -5 -8 -10 -17 -10 -15 0 -16 2 -3 10 19 12
20 12 20 0z m485 -1 c-4 -6 -1 -10 6 -8 32 4 41 -1 36 -21 -3 -11 -1 -18 4
-14 12 7 11 -27 0 -45 -7 -10 -4 -19 7 -29 16 -13 16 -13 -1 -8 -10 3 -25 6
-33 6 -8 0 -14 10 -14 21 0 18 -2 20 -16 9 -8 -8 -22 -29 -30 -48 -15 -37 -22
-35 -42 10 -9 22 -8 30 4 43 9 8 22 15 30 15 8 0 12 5 9 10 -6 9 30 70 41 70
3 0 2 -5 -1 -11z m2113 -34 c-3 -3 -9 2 -12 12 -6 14 -5 15 5 6 7 -7 10 -15 7
-18z m-1958 -30 c0 -8 -2 -15 -4 -15 -2 0 -6 7 -10 15 -3 8 -1 15 4 15 6 0 10
-7 10 -15z m1415 5 c3 -5 1 -10 -4 -10 -6 0 -11 5 -11 10 0 6 2 10 4 10 3 0 8
-4 11 -10z m560 0 c3 -5 1 -10 -4 -10 -6 0 -11 5 -11 10 0 6 2 10 4 10 3 0 8
-4 11 -10z m-1505 -13 c0 -7 -7 -22 -15 -33 -14 -18 -14 -18 -10 4 6 36 25 58
25 29z m-30 -1 c0 -3 -4 -8 -10 -11 -5 -3 -10 -1 -10 4 0 6 5 11 10 11 6 0 10
-2 10 -4z m-450 -31 c0 -12 -19 -12 -23 0 -4 9 -1 12 9 8 7 -3 14 -7 14 -8z
m-873 -17 c-3 -8 -6 -5 -6 6 -1 11 2 17 5 13 3 -3 4 -12 1 -19z m899 -13 c-3
-9 0 -15 9 -15 8 0 15 -7 15 -15 0 -8 -4 -15 -10 -15 -5 0 -10 -7 -10 -15 0
-8 -2 -15 -4 -15 -2 0 -13 -3 -23 -6 -15 -5 -15 -4 -3 5 12 8 12 13 2 23 -9 9
-15 9 -24 0 -7 -7 -19 -12 -27 -12 -10 1 -6 6 10 15 14 7 30 25 37 39 12 27
38 37 28 11z m796 -20 c-2 -14 -9 -28 -15 -32 -6 -4 -8 0 -4 10 3 9 -1 18 -11
22 -15 6 -15 8 3 15 31 13 33 12 27 -15z m83 -15 c3 -5 2 -10 -4 -10 -5 0 -13
5 -16 10 -3 6 -2 10 4 10 5 0 13 -4 16 -10z m-977 -35 c-2 -10 -7 -12 -17 -5
-13 7 -13 11 -1 25 15 18 24 8 18 -20z m1907 26 c3 -5 1 -12 -4 -16 -6 -3 -8
-26 -6 -51 4 -34 2 -44 -8 -41 -6 2 -11 13 -9 23 5 35 5 39 -2 67 -5 20 -3 27
8 27 8 0 17 -4 21 -9z m-1708 -17 c3 -9 -4 -24 -16 -36 -23 -21 -33 -19 -37 9
-6 36 40 59 53 27z m1043 -4 c3 -1 -6 -5 -20 -9 -26 -8 -50 -4 -50 8 0 5 55 6
70 1z m-2170 -14 c0 -8 -4 -18 -10 -21 -5 -3 -10 3 -10 14 0 12 5 21 10 21 6
0 10 -6 10 -14z m1875 -5 c3 -12 12 -18 20 -15 23 9 26 -31 7 -74 -10 -23 -22
-39 -25 -35 -4 3 -7 -1 -7 -9 0 -10 -7 -15 -17 -13 -10 2 -21 4 -25 4 -5 1 -8
6 -8 11 0 6 5 9 11 8 6 -2 14 3 16 10 3 6 -2 12 -11 12 -9 0 -16 8 -16 18 0
14 2 15 10 2 8 -13 10 -13 10 2 0 11 5 15 15 12 19 -7 20 11 2 28 -14 12 -11
58 3 58 5 0 11 -9 15 -19z m1216 -20 c7 11 9 9 9 -8 0 -30 -42 -57 -72 -47
-13 5 -27 9 -33 10 -5 1 -14 2 -18 3 -4 0 2 12 15 25 26 28 81 39 87 17 3 -12
4 -12 12 0z m-1720 2 c8 -43 2 -70 -16 -88 -12 -11 -30 -39 -41 -62 -11 -24
-27 -44 -39 -46 -12 -3 -7 -5 13 -6 36 -1 36 0 21 -38 -10 -26 -12 -27 -19 -8
-8 17 -9 16 -9 -8 -1 -26 -2 -27 -17 -13 -8 9 -21 16 -27 16 -8 0 -8 3 -2 8
13 9 14 63 1 59 -6 -2 -11 -13 -11 -25 0 -12 -3 -22 -7 -22 -5 0 -8 2 -8 5 0
3 0 13 0 23 0 10 11 25 25 32 16 8 27 25 31 47 4 22 16 39 35 50 15 9 26 20
23 24 -8 14 15 59 31 59 8 0 16 -3 16 -7z m159 -18 c0 -8 -4 -15 -10 -15 -5 0
-7 7 -4 15 4 8 8 15 10 15 2 0 4 -7 4 -15z m474 -1 c4 -10 1 -14 -6 -12 -15 5
-23 28 -10 28 5 0 13 -7 16 -16z m-867 -1 c-4 -3 0 -17 8 -30 13 -19 13 -23 1
-23 -7 0 -16 10 -19 22 -6 21 -1 38 10 38 4 0 3 -3 0 -7z m433 -20 c1 -18 15
-45 40 -73 40 -45 41 -72 2 -51 -27 14 -32 14 -32 -4 0 -8 -7 -15 -15 -15 -8
0 -15 -7 -15 -16 0 -10 6 -14 15 -10 9 3 15 0 15 -8 0 -19 41 -52 73 -60 24
-6 27 -9 17 -21 -7 -8 -21 -15 -31 -15 -20 0 -27 -34 -9 -45 6 -4 8 -11 4 -16
-3 -6 2 -19 12 -30 16 -18 16 -19 -3 -19 -30 0 -83 21 -83 32 0 6 6 8 14 5 8
-3 17 1 20 10 9 22 1 27 -23 13 -24 -12 -30 -65 -8 -73 8 -4 7 -6 -3 -6 -9 -1
-25 6 -36 14 -12 8 -24 11 -28 8 -3 -3 -6 1 -6 11 0 9 5 14 10 11 6 -4 10 13
10 44 0 27 5 62 11 78 7 15 13 66 14 113 2 47 5 96 8 110 2 14 5 28 6 33 3 20
21 3 21 -20z m1460 -43 c4 -6 5 -21 3 -33 -4 -20 0 -22 36 -22 47 0 56 22 19
48 -13 8 -20 18 -17 22 10 9 61 -44 54 -56 -4 -5 1 -12 9 -15 13 -5 14 -9 2
-25 -14 -20 -11 -65 5 -75 18 -10 8 -22 -21 -26 -29 -4 -40 5 -20 17 6 3 10
13 10 22 0 14 -3 14 -20 -2 -15 -14 -19 -26 -15 -45 4 -18 1 -31 -10 -40 -13
-10 -13 -15 -3 -21 10 -7 10 -11 0 -21 -9 -9 -12 -9 -12 0 0 7 -7 12 -16 12
-8 0 -12 5 -9 10 3 6 0 10 -8 10 -8 0 -15 6 -14 13 1 44 -2 47 -53 47 -33 0
-51 -4 -51 -12 -1 -7 -2 -22 -3 -32 -1 -22 -26 -35 -26 -14 0 8 -10 24 -22 36
-21 18 -27 19 -60 9 -21 -7 -38 -15 -38 -18 0 -13 32 -19 50 -9 25 13 25 13
28 -13 1 -16 -7 -26 -26 -35 -32 -14 -129 -101 -116 -103 5 -1 18 -2 28 -3 21
-1 34 -50 16 -61 -5 -3 -10 0 -10 8 0 11 -11 15 -35 14 -19 -1 -31 -3 -26 -6
14 -10 6 -50 -15 -66 -15 -11 -16 -15 -4 -15 13 -1 13 -2 0 -9 -27 -15 -63
-24 -56 -13 3 5 -1 13 -10 16 -12 5 -15 2 -10 -9 6 -17 -40 -72 -51 -61 -3 3
-12 1 -19 -4 -6 -6 -17 -9 -23 -8 -6 2 -19 -10 -29 -27 -17 -31 -41 -54 -55
-55 -4 0 -10 13 -13 28 -6 31 -44 40 -44 10 0 -25 -20 -33 -36 -14 -8 9 -11
14 -8 11 3 -2 12 1 19 8 10 9 9 14 -4 24 -9 7 -24 13 -33 13 -10 0 -18 7 -18
16 0 10 -5 12 -12 7 -21 -12 -48 -14 -48 -2 0 20 84 113 88 98 16 -50 56 -41
66 15 7 39 20 51 59 58 19 4 30 0 37 -11 9 -15 9 -15 10 1 1 52 73 158 108
158 8 0 28 16 45 35 17 19 38 35 47 35 9 0 43 24 76 53 108 97 126 104 143 56
10 -29 13 -31 45 -25 28 5 34 3 39 -14 5 -21 31 -27 42 -10 9 15 -14 50 -33
50 -15 1 -15 2 1 11 17 10 17 12 2 29 -9 10 -28 21 -43 25 -21 5 -23 8 -11 16
18 12 110 4 119 -11z m-1056 -55 c3 -9 0 -15 -9 -15 -8 0 -15 7 -15 15 0 8 4
15 9 15 5 0 11 -7 15 -15z m-516 -63 c3 -34 0 -43 -15 -48 -10 -3 -25 -9 -33
-13 -13 -7 -15 0 -14 39 1 57 9 72 37 68 18 -2 23 -11 25 -46z m562 28 c12 -8
11 -10 -7 -10 -13 0 -23 5 -23 10 0 13 11 13 30 0z m-270 -9 c0 -5 -13 -11
-30 -13 -16 -3 -30 -1 -30 3 0 4 12 10 28 12 15 2 28 5 30 6 1 0 2 -3 2 -8z
m-1798 -23 c-7 -7 -12 -8 -12 -2 0 14 12 26 19 19 2 -3 -1 -11 -7 -17z m2625
-10 c-3 -8 -6 -5 -6 6 -1 11 2 17 5 13 3 -3 4 -12 1 -19z m-897 2 c0 -5 -2
-10 -4 -10 -3 0 -8 5 -11 10 -3 6 -1 10 4 10 6 0 11 -4 11 -10z m40 -65 c-7
-9 -15 -13 -18 -10 -3 2 1 11 8 20 7 9 15 13 18 10 3 -2 -1 -11 -8 -20z m-477
2 c7 -18 -8 -41 -21 -33 -11 7 -4 46 8 46 4 0 10 -6 13 -13z m1957 -2 c0 -8
-7 -15 -15 -15 -13 0 -14 3 -3 15 16 18 18 18 18 0z m-650 -5 c0 -5 -2 -10 -4
-10 -3 0 -8 5 -11 10 -3 6 -1 10 4 10 6 0 11 -4 11 -10z m-1146 -55 c-7 -17
-20 -20 -28 -6 -4 5 0 12 6 14 23 9 28 7 22 -8z m96 6 c0 -5 -7 -11 -14 -14
-10 -4 -13 -1 -9 9 6 15 23 19 23 5z m621 -18 c5 -16 17 -34 26 -40 15 -12 15
-13 -3 -13 -18 0 -29 -10 -52 -46 -4 -6 -17 -14 -29 -18 -20 -6 -23 -4 -23 17
0 37 28 87 45 80 18 -6 19 1 5 28 -9 15 -7 19 5 19 8 0 20 -12 26 -27z m-1431
2 c0 -8 -9 -24 -20 -35 -16 -16 -20 -17 -20 -4 0 21 18 54 30 54 6 0 10 -7 10
-15z m124 -11 c9 -8 16 -20 16 -27 0 -6 -7 -2 -15 9 -14 18 -14 18 -15 -8 0
-21 -6 -28 -31 -33 -17 -4 -32 -5 -35 -3 -8 9 21 68 36 72 26 7 28 6 44 -10z
m906 1 c0 -8 -8 -11 -20 -8 -30 8 -33 21 -5 21 14 0 25 -6 25 -13z m-1920 -15
c0 -5 -2 -10 -4 -10 -3 0 -8 5 -11 10 -3 6 -1 10 4 10 6 0 11 -4 11 -10z
m1675 0 c3 -5 1 -10 -4 -10 -6 0 -11 5 -11 10 0 6 2 10 4 10 3 0 8 -4 11 -10z
m525 0 c0 -5 -4 -10 -10 -10 -5 0 -10 5 -10 10 0 6 5 10 10 10 6 0 10 -4 10
-10z m1049 -93 c6 -6 11 -24 11 -39 0 -24 4 -28 30 -28 17 0 37 -9 49 -21 l20
-22 7 27 c4 15 1 39 -5 53 -17 37 4 58 42 44 15 -6 27 -16 27 -22 0 -7 2 -10
5 -7 3 3 1 17 -4 30 -15 40 7 53 36 22 29 -31 31 -64 3 -64 -35 0 -24 -35 15
-50 28 -11 32 -16 20 -23 -8 -4 -13 -14 -9 -20 3 -7 -2 -3 -10 7 -15 18 -16
19 -16 2 0 -13 -5 -16 -16 -12 -22 8 -44 -23 -37 -51 4 -17 1 -23 -10 -23 -9
0 -19 5 -22 10 -5 8 -12 7 -22 -1 -13 -12 -13 -14 0 -24 9 -7 15 -25 14 -46
-2 -32 -4 -34 -37 -34 -21 0 -36 5 -36 13 -3 23 -4 24 -18 13 -11 -9 -15 -9
-18 0 -3 9 -13 9 -38 1 -67 -20 -100 -23 -100 -7 0 7 -7 21 -16 30 -13 12 -14
19 -4 30 10 12 9 15 -4 15 -10 0 -15 -4 -12 -8 2 -4 1 -14 -4 -22 -6 -9 -14 2
-26 38 -10 29 -25 52 -32 52 -7 0 -11 4 -8 8 3 5 19 7 37 4 22 -3 30 -1 25 7
-4 6 -14 11 -22 11 -20 0 -19 64 2 84 8 9 26 19 40 22 13 3 24 12 24 20 0 13
49 69 62 69 3 0 10 4 14 8 4 4 13 -13 20 -38 6 -26 16 -51 23 -58z m-2099 69
c0 -3 -4 -16 -10 -30 -5 -15 -6 -26 0 -26 4 0 11 8 13 18 3 11 5 8 6 -9 1 -28
-27 -49 -39 -29 -5 8 -9 7 -13 -4 -4 -10 1 -16 18 -18 23 -3 24 -4 7 -26 -10
-13 -28 -24 -40 -25 -12 -1 -22 -5 -22 -10 0 -5 -7 -7 -15 -3 -18 7 -20 -5 -2
-23 10 -11 9 -13 -5 -8 -13 5 -18 1 -18 -11 -1 -15 -2 -15 -15 2 -8 11 -12 28
-9 39 4 13 0 20 -16 24 -16 4 -20 11 -16 27 3 11 6 28 6 37 0 9 9 19 20 22 16
4 22 -2 29 -26 l9 -32 1 30 c1 17 8 41 17 53 14 21 16 21 46 6 27 -14 30 -14
25 -1 -3 8 -3 18 0 21 7 7 23 8 23 2z m1221 -49 c-8 -8 -11 -7 -11 4 0 20 13
34 18 19 3 -7 -1 -17 -7 -23z m-496 3 c3 -5 1 -10 -4 -10 -6 0 -11 5 -11 10 0
6 2 10 4 10 3 0 8 -4 11 -10z m465 -5 c0 -8 5 -15 10 -15 6 0 10 -4 10 -10 0
-15 -29 -12 -46 5 -9 8 -12 19 -9 25 10 15 35 12 35 -5z m-1430 -10 c0 -8 -2
-15 -4 -15 -2 0 -6 7 -10 15 -3 8 -1 15 4 15 6 0 10 -7 10 -15z m310 6 c0 -5
-7 -11 -14 -14 -10 -4 -13 -1 -9 9 6 15 23 19 23 5z m629 -5 c7 -8 8 -17 3
-20 -6 -3 -12 3 -15 14 -6 24 -4 25 12 6z m125 -8 c20 -28 20 -35 1 -35 -20 0
-49 33 -40 46 10 17 22 13 39 -11z m-514 3 c0 -6 -4 -13 -10 -16 -5 -3 -10 1
-10 9 0 9 5 16 10 16 6 0 10 -4 10 -9z m103 0 l25 -10 -20 -68 c-11 -37 -23
-81 -28 -98 -6 -23 -9 -25 -11 -10 -1 11 -2 27 -1 35 0 8 -2 17 -6 20 -4 3
-16 15 -26 28 -18 21 -18 23 -2 41 17 19 17 20 -3 31 -12 6 -21 17 -21 25 0
17 54 20 93 6z m-788 -11 c3 -5 1 -10 -4 -10 -6 0 -11 5 -11 10 0 6 2 10 4 10
3 0 8 -4 11 -10z m982 -12 c-3 -8 -6 -5 -6 6 -1 11 2 17 5 13 3 -3 4 -12 1
-19z m158 1 c-4 -5 0 -12 9 -15 8 -3 12 -12 9 -20 -3 -9 0 -14 8 -12 17 4 34
-60 26 -94 -7 -25 -24 -45 -70 -79 -21 -16 -25 -24 -17 -34 13 -16 5 -37 -20
-53 -17 -10 -23 -9 -38 6 -12 12 -16 25 -12 38 4 10 5 25 2 33 -3 8 -1 12 5 8
5 -3 9 4 9 16 -1 16 5 23 24 24 14 1 19 0 13 -3 -7 -3 -13 -10 -13 -15 0 -6 9
-5 21 1 12 7 18 18 15 26 -3 8 -1 14 4 14 6 0 5 10 -1 23 -8 19 -17 23 -36 19
-19 -4 -24 -1 -21 9 3 8 12 13 21 11 9 -1 25 6 36 17 17 17 18 22 6 29 -13 6
-13 14 -4 40 6 18 15 29 20 26 5 -3 7 -10 4 -15z m-91 -37 c-6 -4 -14 -16 -18
-27 -7 -19 -8 -19 -18 -2 -5 10 -8 19 -6 20 1 1 12 7 23 13 21 12 37 8 19 -4z
m202 -24 c2 -19 -1 -25 -11 -22 -14 6 -26 39 -17 49 12 11 25 -2 28 -27z
m-247 -16 c0 -11 -2 -13 -6 -4 -4 10 -8 10 -19 1 -17 -14 -19 2 -2 19 14 14
28 6 27 -16z m75 13 c-7 -16 -24 -21 -24 -6 0 8 7 13 27 20 1 1 0 -6 -3 -14z
m554 -16 c-4 -25 -58 -60 -65 -41 -6 15 -33 16 -33 1 0 -7 -8 -18 -17 -26 -16
-13 -16 -14 7 -8 24 6 24 5 6 -9 -11 -9 -23 -16 -28 -16 -4 0 -8 -7 -8 -15 0
-8 -7 -15 -15 -15 -8 0 -15 -7 -15 -16 0 -10 -5 -14 -15 -10 -40 15 -90 -41
-86 -95 1 -14 -5 -31 -13 -39 -9 -7 -16 -23 -16 -36 0 -13 -4 -24 -10 -24 -14
0 -25 51 -13 59 6 3 13 19 17 34 5 23 4 28 -11 25 -10 -2 -23 -10 -30 -18 -10
-13 -12 -11 -13 11 0 15 7 32 15 39 12 10 15 10 15 -4 0 -9 5 -16 10 -16 6 0
10 5 10 11 0 5 5 7 11 3 16 -9 -6 29 -25 45 -14 12 -14 16 -1 34 9 13 11 26 5
37 -5 9 -8 30 -6 46 3 24 7 28 27 25 13 -1 26 -7 29 -11 15 -24 142 -5 210 31
45 25 62 24 58 -2z m-1423 2 c3 -5 1 -12 -5 -16 -5 -3 -10 1 -10 9 0 18 6 21
15 7z m-74 -27 c12 -15 10 -16 -23 -11 -20 2 -41 8 -47 11 -6 4 -11 3 -11 -3
0 -6 -8 -7 -17 -4 -15 6 -15 7 1 13 38 13 83 10 97 -6z m536 1 c0 -8 -4 -15
-9 -15 -4 0 -8 7 -8 15 0 8 4 15 8 15 5 0 9 -7 9 -15z m-1484 -20 c-7 -21 -13
-19 -13 6 0 11 4 18 10 14 5 -3 7 -12 3 -20z m1780 10 c1 -5 -6 -11 -15 -13
-11 -2 -18 3 -18 13 0 17 30 18 33 0z m-321 -30 c4 -16 1 -24 -6 -22 -6 2 -12
16 -14 31 -4 35 14 26 20 -9z m-1392 11 c0 -3 -4 -8 -10 -11 -5 -3 -10 -1 -10
4 0 6 5 11 10 11 6 0 10 -2 10 -4z m1800 0 c0 -3 -4 -8 -10 -11 -5 -3 -10 -1
-10 4 0 6 5 11 10 11 6 0 10 -2 10 -4z m44 -11 c-4 -8 -12 -15 -20 -15 -8 0
-11 6 -8 15 4 8 12 15 20 15 8 0 11 -6 8 -15z m1573 -17 c-3 -8 -6 -5 -6 6 -1
11 2 17 5 13 3 -3 4 -12 1 -19z m-2377 -8 c0 -5 -5 -10 -11 -10 -5 0 -7 5 -4
10 3 6 8 10 11 10 2 0 4 -4 4 -10z m290 -4 c0 -3 -4 -8 -10 -11 -5 -3 -10 -1
-10 4 0 6 5 11 10 11 6 0 10 -2 10 -4z m60 -72 c0 -3 -3 -3 -8 0 -4 2 -17 -11
-30 -30 -23 -35 -16 -42 19 -24 11 6 24 8 29 5 12 -7 -8 -64 -23 -67 -7 0 -18
-2 -25 -2 -7 -1 -17 -7 -21 -15 -5 -8 -8 14 -7 53 1 36 -2 66 -6 66 -4 0 1 9
12 20 11 11 20 32 20 47 0 27 1 27 20 -10 11 -20 20 -39 20 -43z m-1505 50
c-9 -10 -14 -25 -12 -35 3 -11 1 -22 -4 -25 -5 -3 -9 5 -9 18 0 18 -2 20 -10
8 -7 -12 -12 -12 -21 -3 -17 17 16 53 48 53 23 0 23 -1 8 -16z m1579 -3 c3 -5
-1 -11 -9 -15 -9 -3 -15 0 -15 9 0 16 16 20 24 6z m-274 -23 c0 -6 3 -9 6 -5
3 3 14 -3 25 -14 23 -23 24 -30 4 -23 -8 4 -15 1 -15 -5 0 -6 5 -11 10 -11 6
0 10 -4 10 -10 0 -5 -9 -10 -19 -10 -15 0 -18 -5 -14 -22 5 -19 3 -21 -7 -11
-17 16 -27 123 -11 123 6 0 11 -5 11 -12z m783 -13 c2 -14 2 -24 0 -21 -3 3
-16 -7 -29 -22 -13 -15 -24 -21 -24 -14 0 6 5 12 10 12 6 0 9 3 8 8 -1 7 23
62 27 62 2 0 5 -11 8 -25z m-2023 11 c0 -3 -4 -8 -10 -11 -5 -3 -10 -1 -10 4
0 6 5 11 10 11 6 0 10 -2 10 -4z m3578 -39 c0 -17 -4 -37 -10 -44 -8 -10 -6
-13 7 -13 12 0 15 -5 11 -16 -3 -9 -6 -22 -6 -29 0 -8 -7 -20 -15 -29 -8 -8
-17 -30 -19 -48 -3 -18 -5 -33 -6 -33 -1 0 -3 -8 -5 -18 -5 -25 -8 -27 -24
-18 -7 5 -15 36 -18 72 -3 35 -10 69 -15 76 -5 7 -7 16 -4 21 3 5 -6 7 -20 4
-21 -4 -25 -1 -22 14 2 12 12 19 26 18 12 0 22 5 22 13 0 7 5 13 10 13 6 0 10
9 10 20 0 12 9 24 22 29 36 13 55 3 56 -32z m-498 -83 c-7 -19 -9 -41 -6 -49
3 -8 1 -15 -4 -15 -6 0 -10 11 -10 24 0 14 -4 28 -10 31 -5 3 -9 -2 -8 -12 3
-34 -2 -66 -9 -60 -3 4 -13 1 -21 -6 -13 -10 -14 -9 -8 1 13 22 17 60 6 67 -5
3 -10 1 -10 -4 0 -6 -9 -11 -20 -11 -11 0 -19 3 -18 8 1 4 -2 19 -6 34 -5 15
-3 34 3 45 9 16 10 16 11 -5 0 -21 1 -22 16 -8 8 9 17 28 18 43 2 16 4 29 5
31 0 1 19 -16 42 -39 39 -39 40 -41 29 -75z m-3205 86 c3 -5 1 -10 -4 -10 -6
0 -11 5 -11 10 0 6 2 10 4 10 3 0 8 -4 11 -10z m2492 -3 c0 -7 -6 -18 -14 -25
-17 -17 -19 8 -1 26 15 15 15 15 15 -1z m210 -27 c1 -11 -2 -20 -8 -20 -5 0
-9 2 -9 4 0 2 -3 11 -6 20 -4 10 -1 16 8 16 7 0 14 -9 15 -20z m-72 -10 c-4
-14 -2 -20 8 -20 7 0 14 -7 14 -15 0 -18 -13 -20 -20 -2 -3 6 -6 -1 -6 -16 -1
-26 -20 -57 -35 -57 -3 0 -6 18 -6 40 0 22 4 40 8 40 5 0 15 11 22 25 16 30
24 33 15 5z m-917 -26 c-2 -12 -11 -18 -23 -16 -11 2 -28 4 -37 5 -29 2 -21
17 12 24 17 3 30 10 30 16 0 8 3 8 11 0 6 -6 9 -19 7 -29z m-758 16 c0 -5 -10
-10 -22 -10 -19 0 -20 2 -8 10 19 13 30 13 30 0z m1848 -36 c-6 -13 -16 -24
-21 -24 -6 0 -7 3 -4 6 3 4 1 16 -4 27 -8 15 -8 22 2 28 23 14 40 -9 27 -37z
m-74 4 c10 -41 7 -69 -8 -66 -8 2 -15 -1 -14 -7 0 -5 4 -9 9 -7 15 4 10 -21
-11 -53 -38 -57 -117 -34 -85 25 l13 25 7 -28 c6 -22 10 -25 21 -16 12 10 12
15 -1 35 -19 30 -2 73 29 75 17 1 18 2 4 6 -21 5 -23 19 -5 26 25 10 35 7 41
-15z m-1264 -13 c0 -8 -4 -15 -10 -15 -5 0 -10 7 -10 15 0 8 5 15 10 15 6 0
10 -7 10 -15z m-497 -13 c-18 -18 -53 -36 -53 -27 0 13 37 43 53 44 17 1 17 0
0 -17z m197 -1 c0 -14 -5 -18 -20 -14 -11 3 -20 0 -20 -6 0 -6 -4 -11 -10 -11
-18 0 -10 15 18 32 15 9 28 17 30 17 1 1 2 -8 2 -18z m-413 -28 c-3 -10 -5 -4
-5 12 0 17 2 24 5 18 2 -7 2 -21 0 -30z m1453 7 c0 -5 -4 -10 -10 -10 -5 0
-10 5 -10 10 0 6 5 10 10 10 6 0 10 -4 10 -10z m916 -12 c-15 -50 -17 -53 -26
-38 -15 23 -12 38 8 43 9 3 18 5 19 6 1 0 1 -5 -1 -11z m-1236 -8 c0 -5 -7 -7
-16 -3 -13 5 -15 2 -9 -15 5 -16 2 -22 -9 -22 -17 0 -20 9 -10 34 7 17 44 22
44 6z m-770 -3 c0 -2 -10 -12 -21 -23 -22 -19 -22 -19 -10 4 10 18 31 31 31
19z m60 -21 c0 -17 -2 -18 -10 -6 -5 8 -13 11 -17 6 -7 -7 17 -31 39 -38 15
-5 -8 -88 -28 -103 -11 -8 -25 -10 -34 -5 -8 4 -28 6 -43 3 -24 -5 -27 -2 -27
21 0 14 4 26 9 26 5 0 13 15 16 33 10 43 16 52 26 36 6 -10 9 -8 9 8 0 22 20
40 46 40 8 0 14 -10 14 -21z m570 9 c-12 -15 -30 -12 -30 6 0 5 10 9 21 9 18
0 19 -2 9 -15z m-1686 -39 c-9 -36 -24 -20 -17 17 3 17 9 25 15 19 5 -5 6 -21
2 -36z m2506 33 c0 -5 -4 -7 -10 -4 -5 3 -10 1 -10 -4 0 -6 -4 -11 -10 -11 -5
0 -10 7 -10 15 0 8 9 15 20 15 11 0 20 -5 20 -11z m280 -57 c0 -2 -7 -10 -15
-18 -12 -13 -17 -12 -35 3 -23 20 -25 35 -9 65 10 19 12 18 35 -13 13 -18 24
-35 24 -37z m500 54 c0 -3 -4 -8 -10 -11 -5 -3 -10 -1 -10 4 0 6 5 11 10 11 6
0 10 -2 10 -4z m-2380 -53 c0 -7 -4 -13 -9 -13 -10 0 -21 36 -13 45 7 7 22
-15 22 -32z m2478 15 c-19 -30 -29 -68 -17 -68 5 0 9 -3 9 -8 0 -4 -16 -7 -35
-8 -36 -1 -53 25 -17 27 10 0 12 3 5 6 -20 7 -15 31 8 44 15 8 19 8 15 0 -4
-6 -3 -11 3 -11 5 0 13 9 16 20 3 11 11 20 17 20 6 0 4 -9 -4 -22z m-2148 2
c0 -5 -7 -10 -15 -10 -8 0 -15 5 -15 10 0 6 7 10 15 10 8 0 15 -4 15 -10z
m555 -10 c3 -5 -1 -10 -10 -10 -9 0 -13 5 -10 10 3 6 8 10 10 10 2 0 7 -4 10
-10z m-1765 -10 c0 -5 -4 -10 -10 -10 -5 0 -10 5 -10 10 0 6 5 10 10 10 6 0
10 -4 10 -10z m1265 -20 c3 -5 4 -10 1 -10 -2 0 -12 -3 -20 -6 -12 -5 -15 -2
-10 10 7 18 20 21 29 6z m-1271 -17 c7 -16 -8 -33 -30 -33 -17 0 -37 27 -29
40 10 16 52 12 59 -7z m1566 -9 c0 -16 -16 -19 -25 -4 -8 13 4 32 16 25 5 -4
9 -13 9 -21z m1430 16 c0 -5 -2 -10 -4 -10 -3 0 -8 5 -11 10 -3 6 -1 10 4 10
6 0 11 -4 11 -10z m390 0 c12 -8 11 -10 -7 -10 -13 0 -23 5 -23 10 0 13 11 13
30 0z m-2506 -15 c-4 -8 -8 -15 -10 -15 -2 0 -4 7 -4 15 0 8 4 15 10 15 5 0 7
-7 4 -15z m930 -14 c-7 -8 -35 9 -29 19 4 6 11 5 20 -3 7 -6 11 -14 9 -16z
m1736 -12 c0 -10 -7 -19 -15 -19 -16 0 -19 9 -9 34 8 20 24 11 24 -15z m108
25 c14 -4 21 -12 18 -20 -3 -7 0 -15 7 -17 9 -3 9 -9 0 -24 -9 -16 -9 -23 0
-33 9 -10 9 -14 0 -17 -7 -3 -13 -11 -13 -19 0 -12 -4 -12 -21 -4 -11 6 -19
19 -17 28 1 9 0 22 -4 27 -6 10 -11 50 -9 73 1 14 6 14 39 6z m-783 -14 c3 -5
-1 -10 -9 -10 -9 0 -16 5 -16 10 0 6 4 10 9 10 6 0 13 -4 16 -10z m424 -16
c63 -13 89 -30 71 -48 -4 -4 -6 -15 -3 -22 3 -8 -1 -14 -11 -14 -11 0 -16 7
-14 17 2 13 -8 21 -40 31 -23 8 -39 18 -36 23 3 5 -11 9 -30 9 -20 0 -36 4
-36 8 0 12 26 11 99 -4z m-384 -4 c3 -5 2 -10 -4 -10 -5 0 -13 5 -16 10 -3 6
-2 10 4 10 5 0 13 -4 16 -10z m76 -13 c-10 -9 -11 -8 -5 6 3 10 9 15 12 12 3
-3 0 -11 -7 -18z m-29 -5 c-6 -2 -12 -11 -12 -20 0 -15 -2 -15 -10 -2 -17 26
-12 39 12 32 12 -3 17 -7 10 -10z m236 -10 c6 -18 -15 -14 -22 4 -4 10 -1 14
6 12 6 -2 14 -10 16 -16z m-428 -1 c0 -12 -20 -25 -27 -18 -7 7 6 27 18 27 5
0 9 -4 9 -9z m220 -5 c0 -3 -4 -8 -10 -11 -5 -3 -10 -1 -10 4 0 6 5 11 10 11
6 0 10 -2 10 -4z m-400 -36 c0 -5 -7 -10 -15 -10 -8 0 -15 5 -15 10 0 6 7 10
15 10 8 0 15 -4 15 -10z m55 -21 c4 -6 4 -13 1 -16 -7 -7 -46 26 -46 39 0 10
36 -8 45 -23z m105 21 c0 -13 47 -13 55 0 6 9 37 8 125 -5 18 -3 15 -26 -11
-77 -23 -45 -37 -47 -77 -10 -16 15 -34 26 -40 24 -6 -2 -17 6 -24 17 -8 12
-18 18 -21 14 -4 -3 9 -21 28 -40 19 -19 35 -43 35 -54 0 -11 5 -17 10 -14 14
9 13 -3 -2 -19 -9 -10 -22 -2 -60 38 -26 28 -46 57 -43 64 3 7 -2 26 -10 43
-15 28 -15 29 10 29 14 0 25 -4 25 -10z m-1750 -10 c0 -5 -7 -10 -16 -10 -8 0
-12 5 -9 10 3 6 10 10 16 10 5 0 9 -4 9 -10z m2115 -21 c-4 -6 1 -17 11 -24
24 -18 34 -19 34 -1 0 10 8 13 28 10 67 -11 73 -14 67 -34 -7 -23 -6 -24 30
-10 14 5 24 14 20 20 -3 5 -13 6 -22 3 -11 -4 -14 -2 -11 8 3 8 14 13 26 11
13 -2 25 3 28 12 9 23 44 20 44 -3 0 -11 -4 -23 -10 -26 -21 -13 -8 -25 26
-25 23 0 42 -6 50 -17 22 -29 16 -39 -21 -39 -19 0 -35 4 -35 8 0 13 -28 9
-34 -4 -4 -9 -8 -10 -11 -2 -4 8 -18 9 -42 3 -38 -8 -78 4 -68 21 12 20 -18
21 -39 1 -30 -28 -60 -26 -85 5 -20 26 -28 74 -14 87 11 11 35 8 28 -4z m630
-36 c0 -27 -4 -48 -10 -48 -19 0 -35 -16 -35 -33 1 -12 5 -10 15 8 13 22 14
23 14 5 0 -23 -24 -56 -54 -73 -11 -6 -14 -12 -7 -12 25 0 12 -51 -23 -88 -38
-41 -43 -52 -20 -52 26 0 28 -25 6 -66 -12 -21 -21 -45 -21 -52 0 -9 -6 -12
-15 -8 -11 4 -15 -2 -15 -27 0 -31 0 -31 16 -9 8 12 19 22 23 22 13 0 0 -52
-19 -80 -12 -17 -16 -36 -13 -55 l6 -30 -24 20 c-46 38 -48 43 -43 138 2 50 9
96 14 101 6 6 10 20 10 33 0 35 19 68 51 87 16 9 28 20 27 24 0 4 6 23 15 42
10 22 12 37 5 41 -14 9 -5 45 10 42 7 -2 12 6 12 16 0 25 28 54 46 47 10 -4
14 3 14 24 0 17 4 30 8 30 4 0 8 -21 7 -47z m-3735 22 c0 -8 -4 -15 -10 -15
-5 0 -10 7 -10 15 0 8 5 15 10 15 6 0 10 -7 10 -15z m2650 -26 c-12 -9 -11
-10 7 -6 13 3 26 1 29 -4 3 -5 -1 -9 -10 -9 -8 0 -16 -4 -18 -9 -1 -5 -12 -3
-23 5 -17 13 -18 16 -5 24 21 13 38 12 20 -1z m360 -13 c0 -2 -7 -7 -16 -10
-8 -3 -12 -2 -9 4 6 10 25 14 25 6z m-1074 -41 c1 -17 -3 -25 -14 -25 -12 0
-13 -3 -4 -12 18 -18 14 -33 -12 -48 -13 -7 -26 -20 -29 -30 -5 -20 -37 -23
-37 -3 0 7 4 13 9 13 5 0 11 17 14 38 6 37 39 76 53 64 4 -4 4 1 1 11 -4 10
-2 17 6 17 7 0 13 -11 13 -25z m1653 -104 c-7 -16 -16 -28 -20 -26 -3 3 -14
-4 -24 -15 -22 -25 -40 -26 -30 -2 4 9 7 25 7 35 0 9 4 17 9 17 6 0 7 -4 4
-10 -3 -5 -2 -10 3 -10 5 0 12 14 16 31 4 20 10 28 17 23 8 -5 9 -3 5 5 -5 7
-14 10 -22 7 -8 -3 -14 -1 -14 4 0 6 5 10 11 10 5 0 7 5 3 11 -3 6 0 15 7 20
23 14 44 -63 28 -100z m-929 80 c0 -5 -11 -8 -25 -8 -14 0 -25 3 -25 8 0 5 11
9 25 9 14 0 25 -4 25 -9z m-80 -14 c0 -7 -14 -21 -30 -31 -17 -9 -28 -22 -24
-27 4 -6 11 -6 20 2 11 9 14 8 14 -2 0 -8 9 1 20 19 21 34 40 42 40 16 0 -9 5
-13 13 -9 6 4 3 -1 -7 -9 -11 -9 -23 -16 -28 -16 -4 0 -8 -7 -8 -15 0 -8 3
-14 8 -14 22 4 30 -3 25 -21 -7 -25 4 -26 30 -3 18 17 19 17 15 -12 -4 -40
-39 -46 -62 -11 -9 15 -14 26 -10 26 4 0 1 7 -6 15 -7 9 -21 14 -30 13 -29 -5
-50 20 -39 46 9 18 19 26 57 45 1 0 2 -5 2 -12z m922 -2 c0 -5 -5 -11 -11 -13
-6 -2 -11 4 -11 13 0 9 5 15 11 13 6 -2 11 -8 11 -13z m-562 -4 c0 -6 -4 -13
-10 -16 -5 -3 -10 1 -10 9 0 9 5 16 10 16 6 0 10 -4 10 -9z m260 5 c0 -3 -4
-8 -10 -11 -5 -3 -10 -1 -10 4 0 6 5 11 10 11 6 0 10 -2 10 -4z m-1050 -33
c24 -21 27 -53 4 -53 -8 0 -13 -4 -9 -9 9 -15 -13 -23 -34 -11 -14 7 -19 18
-16 37 1 16 8 27 14 26 6 -2 11 4 11 12 0 19 5 19 30 -2z m1350 -3 c0 -5 -5
-10 -11 -10 -5 0 -7 5 -4 10 3 6 8 10 11 10 2 0 4 -4 4 -10z m-1430 -43 c0
-11 12 -33 27 -49 21 -22 24 -30 14 -42 -12 -15 -45 -11 -36 4 3 4 -6 15 -20
24 -27 17 -32 45 -14 77 12 24 29 16 29 -14z m-1042 5 c2 -7 -2 -10 -12 -6 -9
3 -16 11 -16 16 0 13 23 5 28 -10z m1713 -15 c-16 -16 -26 0 -10 19 9 11 15
12 17 4 2 -6 -1 -17 -7 -23z m-1871 13 c0 -5 -4 -10 -10 -10 -5 0 -10 5 -10
10 0 6 5 10 10 10 6 0 10 -4 10 -10z m-120 -17 c-1 -13 -29 -59 -30 -48 0 21
13 55 21 55 5 0 9 -3 9 -7z m156 -40 c-10 -10 -19 5 -10 18 6 11 8 11 12 0 2
-7 1 -15 -2 -18z m20 -20 c-11 -11 -17 4 -9 23 7 18 8 18 11 1 2 -10 1 -21 -2
-24z m1811 -8 c-5 -28 -2 -35 10 -35 15 0 10 -15 -5 -15 -4 -1 -17 -6 -29 -13
-21 -12 -23 -11 -23 12 0 27 30 86 44 86 5 0 6 -16 3 -35z m223 15 c3 -1 -3
-5 -13 -9 -10 -4 -19 -11 -19 -16 0 -6 -4 -18 -9 -28 -7 -13 -6 -19 6 -23 21
-8 19 -31 -4 -37 -24 -6 -36 30 -22 65 5 13 12 31 15 40 4 14 18 16 46 8z
m-1908 -20 c19 -18 33 -79 23 -109 -4 -13 -18 -23 -40 -27 -19 -3 -32 -10 -30
-15 3 -4 -3 -13 -14 -18 -24 -14 -44 -14 -36 -2 3 5 0 13 -6 17 -7 4 -9 24 -5
57 9 65 21 88 43 80 11 -4 14 -3 9 5 -19 31 24 40 56 12z m708 -5 c0 -8 7 -15
15 -15 8 0 15 -4 15 -10 0 -5 -11 -10 -25 -10 -20 0 -25 5 -25 25 0 14 5 25
10 25 6 0 10 -7 10 -15z m1880 -5 c0 -5 -5 -10 -11 -10 -5 0 -7 5 -4 10 3 6 8
10 11 10 2 0 4 -4 4 -10z m-2879 -27 c-12 -20 -14 -14 -5 12 4 9 9 14 11 11 3
-2 0 -13 -6 -23z m1249 14 c0 -8 -6 -14 -14 -14 -8 0 -12 6 -9 14 3 7 9 13 14
13 5 0 9 -6 9 -13z m-1134 -24 c-10 -10 -19 5 -10 18 6 11 8 11 12 0 2 -7 1
-15 -2 -18z m2206 13 c6 4 8 -4 6 -17 -1 -13 -6 -23 -10 -21 -5 1 -8 5 -7 8 0
4 -5 10 -11 14 -8 5 -9 13 -4 21 6 10 9 10 12 1 2 -7 8 -9 14 -6z m429 0 c5 3
9 -1 9 -9 0 -8 -9 -17 -21 -20 -15 -4 -19 -2 -15 10 3 8 6 20 7 26 0 8 2 8 6
-1 2 -6 9 -10 14 -6z m-2781 -16 c0 -5 -4 -10 -10 -10 -5 0 -10 5 -10 10 0 6
5 10 10 10 6 0 10 -4 10 -10z m1071 -50 c18 -14 43 -35 56 -47 15 -15 31 -20
48 -17 31 5 68 -12 60 -29 -4 -7 0 -4 8 5 16 20 27 14 27 -14 0 -10 -7 -18
-15 -18 -8 0 -15 -4 -15 -9 0 -5 11 -8 25 -7 16 0 23 6 20 14 -2 7 2 15 10 18
8 4 12 11 9 16 -4 6 2 7 16 3 15 -5 20 -4 16 4 -4 6 -2 11 3 11 6 0 11 -3 11
-7 -1 -15 -27 -43 -40 -43 -8 0 -10 -8 -7 -22 9 -34 -2 -68 -20 -61 -12 5 -13
-1 -8 -29 5 -26 2 -38 -11 -49 -13 -11 -18 -11 -21 -1 -7 18 -27 15 -48 -8
-14 -15 -15 -20 -4 -20 10 0 15 -18 17 -72 2 -40 5 -74 8 -77 3 -3 14 0 24 7
25 15 38 16 22 0 -7 -7 -12 -16 -12 -20 0 -14 68 -8 84 7 12 12 20 14 36 5 22
-12 25 -27 11 -50 -17 -26 0 -31 20 -5 11 13 18 29 15 33 -3 5 8 19 25 31 30
22 58 24 71 6 4 -5 8 0 8 13 0 13 4 21 9 18 5 -3 22 -3 38 0 29 6 49 31 84
105 9 20 24 39 33 42 18 7 21 38 5 54 -8 8 -7 14 4 24 12 12 11 15 -7 24 -12
6 -23 22 -24 35 -2 14 -12 34 -21 45 -10 11 -25 33 -35 49 -18 28 -18 29 0 21
11 -4 33 -11 49 -15 61 -17 97 -29 108 -39 7 -5 31 -9 55 -8 25 0 47 -5 51
-12 10 -16 89 3 106 25 5 8 24 15 40 17 52 6 135 41 136 57 1 8 5 -3 10 -25 6
-25 6 -48 0 -62 -7 -15 -6 -26 3 -38 11 -16 14 -14 34 16 l21 33 6 -29 c3 -17
11 -39 17 -50 27 -48 18 -125 -14 -125 -22 0 -20 -18 5 -34 11 -7 25 -7 44 0
23 8 28 15 27 41 -2 26 2 32 25 36 14 3 36 8 49 12 16 5 22 3 22 -7 0 -9 17
-18 48 -24 44 -8 47 -11 50 -42 2 -18 8 -30 13 -26 13 7 39 -14 39 -32 0 -8
-9 -14 -20 -14 -13 0 -20 -7 -20 -20 0 -23 -4 -24 -30 -10 -13 7 -21 5 -31 -6
-15 -18 -4 -31 31 -36 35 -4 35 -41 0 -48 -24 -5 -60 18 -60 40 0 5 -6 7 -13
4 -27 -10 -57 41 -71 121 -2 11 -4 22 -5 24 0 2 -8 -2 -16 -9 -8 -7 -12 -16
-9 -21 3 -5 0 -9 -6 -9 -6 0 -8 -5 -4 -11 4 -7 -1 -9 -12 -7 -11 2 -18 9 -17
15 1 6 -9 8 -23 5 -13 -2 -31 1 -39 8 -9 7 -18 10 -22 6 -3 -3 -17 10 -30 28
-14 22 -30 34 -43 33 -22 -1 -25 -8 -9 -24 16 -16 -39 -57 -57 -42 -11 9 -14
8 -14 -6 0 -9 -9 -30 -20 -45 -34 -48 -51 -100 -51 -156 0 -71 -16 -71 -59 1
-30 49 -82 116 -87 111 -2 -2 8 -29 22 -61 14 -32 25 -64 25 -72 0 -10 6 -13
16 -9 17 6 36 -9 47 -36 5 -14 1 -18 -18 -18 -51 0 -125 22 -125 36 0 9 4 13
9 9 17 -10 21 13 5 26 -15 12 -19 10 -33 -11 -34 -52 -61 -70 -101 -70 -31 0
-45 -7 -70 -32 -17 -18 -33 -44 -37 -58 -3 -14 -14 -39 -25 -57 -13 -21 -15
-34 -8 -38 6 -4 10 -17 9 -28 -2 -12 1 -36 5 -54 4 -19 3 -40 -4 -52 -8 -15
-8 -21 0 -21 6 0 8 -4 5 -10 -3 -5 1 -10 9 -10 9 0 16 -4 16 -10 0 -5 -9 -10
-19 -10 -11 0 -21 -5 -23 -11 -2 -6 -15 -9 -28 -7 l-25 3 21 20 c16 14 21 31
20 59 -2 43 -13 51 -51 42 -23 -6 -36 -36 -16 -36 5 0 11 -11 13 -24 6 -32
-12 -28 -52 12 -34 34 -90 68 -90 55 0 -5 -4 -2 -9 6 -7 11 -13 12 -23 4 -7
-5 -24 -13 -38 -16 -23 -5 -23 -5 -7 8 12 9 15 15 7 20 -6 4 -9 13 -6 20 2 7
-4 21 -14 30 -17 15 -22 16 -37 4 -10 -8 -20 -17 -23 -20 -12 -15 -57 -33 -74
-30 -16 2 -18 -2 -13 -28 5 -25 2 -34 -21 -50 -36 -27 -62 -53 -62 -61 0 -4
25 -23 55 -42 54 -35 55 -35 35 -55 -10 -12 -16 -24 -13 -27 4 -3 2 -6 -4 -6
-11 0 -37 -55 -38 -80 0 -8 4 -20 8 -27 5 -7 6 -17 2 -24 -5 -8 -1 -9 13 -5
11 4 23 2 27 -4 3 -5 -2 -10 -14 -10 -28 0 -52 11 -45 21 3 5 1 9 -4 9 -18 0
-21 -29 -4 -39 9 -6 12 -11 6 -11 -6 0 -19 9 -29 20 -15 16 -16 30 -11 78 4
32 2 91 -4 132 -6 41 -11 119 -12 173 -1 53 -6 97 -10 97 -4 0 -8 12 -9 28 0
15 -3 21 -6 12 -3 -8 -12 -18 -19 -23 -7 -4 -10 -15 -7 -23 3 -9 0 -20 -8 -25
-23 -14 -49 -10 -49 7 0 10 -6 14 -15 11 -8 -4 -17 -2 -20 3 -4 6 3 10 15 10
11 0 23 7 27 16 3 9 13 14 25 11 12 -4 24 2 33 16 22 35 22 52 0 53 -49 3 -55
5 -55 23 0 10 -6 24 -14 31 -8 6 -13 17 -10 24 3 7 -9 26 -25 42 -37 34 -40
54 -8 55 20 0 57 5 100 12 32 6 37 20 27 86 -9 68 -1 101 25 101 8 0 15 8 15
18 0 10 7 28 16 41 13 18 18 20 25 10 4 -7 11 -10 15 -6 4 3 1 14 -7 23 -12
15 -11 16 10 9 16 -5 21 -4 17 4 -4 6 -13 11 -21 11 -7 0 -16 10 -20 23 -10
37 -28 67 -39 67 -6 0 -19 12 -30 26 -13 19 -15 29 -7 37 6 6 11 19 11 28 0
21 22 38 28 21 5 -15 22 -16 22 -1 0 7 8 18 18 26 9 8 11 12 5 8 -15 -7 -16
-4 -7 19 5 12 9 13 19 3 7 -6 28 -23 46 -37z m244 30 c3 -5 1 -10 -4 -10 -6 0
-11 5 -11 10 0 6 2 10 4 10 3 0 8 -4 11 -10z m971 -3 c14 5 20 -18 7 -30 -9
-10 -33 13 -32 32 0 9 3 11 5 4 3 -7 12 -9 20 -6z m-981 -36 c-6 -5 -25 10
-25 20 0 5 6 4 14 -3 8 -7 12 -15 11 -17z m1067 4 c12 -16 -2 -25 -23 -15 -11
6 -17 15 -14 20 7 11 27 9 37 -5z m-2293 -21 c3 -16 1 -17 -13 -5 -19 16 -21
34 -3 29 6 -3 14 -13 16 -24z m2554 12 c9 3 17 1 17 -4 0 -6 -8 -13 -17 -15
-14 -4 -13 -5 4 -6 12 0 24 5 26 12 3 7 6 5 6 -5 1 -11 -6 -18 -16 -18 -17 -1
-17 -1 -1 -10 21 -13 12 -50 -12 -50 -10 0 -20 6 -23 13 -4 10 -7 10 -18 0
-20 -20 -29 -16 -29 12 0 35 30 92 39 76 4 -6 15 -9 24 -5z m-1373 -17 c0 -10
-16 -11 -48 -2 -15 3 -19 8 -12 13 14 9 60 1 60 -11z m217 9 c4 -7 8 -17 9
-23 1 -5 5 -18 9 -28 7 -16 3 -18 -31 -15 -36 3 -38 5 -42 41 -3 34 -1 37 22
37 14 0 28 -6 33 -12z m836 -8 c6 -22 -8 -28 -16 -7 -3 7 -6 6 -6 -5 -1 -9 4
-20 9 -23 15 -10 12 -35 -5 -35 -8 0 -15 -4 -15 -10 0 -5 5 -10 10 -10 6 0 10
-12 10 -27 l0 -27 -16 23 c-10 14 -14 33 -10 52 3 16 1 29 -4 29 -17 0 -11 38
8 49 24 15 29 14 35 -9z m-86 -12 c-3 -8 -6 -5 -6 6 -1 11 2 17 5 13 3 -3 4
-12 1 -19z m-1360 -10 c-3 -8 -6 -5 -6 6 -1 11 2 17 5 13 3 -3 4 -12 1 -19z
m2033 1 c0 -6 -4 -7 -10 -4 -5 3 -10 11 -10 16 0 6 5 7 10 4 6 -3 10 -11 10
-16z m-1513 -16 c-15 -16 -17 -16 -17 -1 0 9 6 18 13 21 20 7 22 -2 4 -20z
m-1303 -9 c3 -8 2 -12 -4 -9 -6 3 -10 10 -10 16 0 14 7 11 14 -7z m811 -23
c-3 -12 -11 -19 -16 -15 -6 4 -6 11 1 19 7 8 8 20 4 27 -5 10 -4 10 6 2 7 -7
9 -21 5 -33z m-345 15 c0 -3 -4 -8 -10 -11 -5 -3 -10 -1 -10 4 0 6 5 11 10 11
6 0 10 -2 10 -4z m-410 -27 c0 -6 -4 -7 -10 -4 -5 3 -10 11 -10 16 0 6 5 7 10
4 6 -3 10 -11 10 -16z m560 11 c0 -5 -2 -10 -4 -10 -3 0 -8 5 -11 10 -3 6 -1
10 4 10 6 0 11 -4 11 -10z m-620 -10 c0 -5 -2 -10 -4 -10 -3 0 -8 5 -11 10 -3
6 -1 10 4 10 6 0 11 -4 11 -10z m116 -13 c4 -4 0 -7 -9 -7 -9 0 -18 4 -21 9
-7 10 20 9 30 -2z m444 -19 c0 -16 -3 -19 -11 -11 -6 6 -8 16 -5 22 11 17 16
13 16 -11z m266 -17 c0 -22 -4 -37 -8 -35 -4 3 -6 -1 -3 -8 3 -7 -4 -28 -15
-45 -24 -40 -57 -44 -66 -8 -3 14 -10 25 -15 25 -12 0 -11 -27 1 -35 21 -13 9
-25 -12 -14 -13 7 -25 12 -28 11 -3 -1 -5 3 -4 8 1 6 2 18 3 28 0 10 13 25 29
33 15 7 35 20 44 29 39 35 49 41 58 35 6 -3 10 -1 10 4 0 6 2 11 4 11 2 0 3
-18 2 -39z m1684 14 c0 -8 -4 -15 -10 -15 -5 0 -10 7 -10 15 0 8 5 15 10 15 6
0 10 -7 10 -15z m-70 -9 c0 -3 -4 -8 -10 -11 -5 -3 -10 -1 -10 4 0 6 5 11 10
11 6 0 10 -2 10 -4z m-204 -32 c-4 -9 -9 -15 -11 -12 -3 3 -3 13 1 22 4 9 9
15 11 12 3 -3 3 -13 -1 -22z m-1706 -24 c0 -5 -4 -10 -10 -10 -5 0 -10 5 -10
10 0 6 5 10 10 10 6 0 10 -4 10 -10z m900 -5 c0 -8 -7 -15 -16 -15 -14 0 -14
3 -4 15 7 8 14 15 16 15 2 0 4 -7 4 -15z m1276 -1 c15 -4 20 -13 18 -35 -3
-40 -9 -45 -39 -31 -31 14 -41 37 -25 57 14 17 16 17 46 9z m-77 -55 c35 -12
43 -34 9 -24 -13 3 -18 3 -13 -2 16 -13 16 -63 0 -63 -10 0 -11 -9 -2 -42 5
-24 14 -48 18 -53 12 -15 -4 -36 -29 -38 -15 -1 -22 -8 -22 -23 0 -14 -8 -24
-22 -29 -20 -6 -20 -8 -5 -12 13 -3 15 -11 11 -30 -4 -14 -8 -33 -9 -42 -3
-33 -25 -71 -51 -87 -24 -17 -27 -17 -36 -1 -16 29 -28 19 -28 -23 0 -22 -5
-40 -11 -40 -5 0 -8 -4 -4 -9 6 -10 -20 -21 -63 -25 -21 -2 -28 -9 -30 -30 -2
-14 -8 -26 -13 -26 -5 0 -8 -3 -8 -7 1 -5 1 -22 0 -38 -1 -24 -6 -31 -23 -32
-17 -2 -19 0 -8 7 22 13 10 17 -38 12 -40 -4 -43 -6 -39 -28 5 -27 5 -26 -17
-18 -9 3 -16 13 -16 21 0 9 -6 13 -15 9 -27 -10 -94 21 -95 45 0 10 34 5 42
-6 5 -6 8 -3 8 7 0 18 50 82 58 74 3 -3 -1 -12 -8 -21 -10 -12 -10 -15 4 -15
9 0 16 8 16 20 0 23 1 24 34 9 20 -10 29 -8 55 11 17 12 28 26 25 32 -4 6 1 8
13 4 24 -8 40 5 113 92 52 61 54 63 65 42 l12 -22 6 21 c7 28 -46 59 -69 40
-9 -7 -14 -8 -14 -1 0 6 13 19 29 28 30 18 33 23 57 104 19 64 18 80 -6 80
-21 0 -27 15 -10 25 6 3 10 1 10 -4 0 -6 3 -11 8 -11 4 0 7 21 7 47 1 39 4 49
20 52 11 2 24 9 28 17 10 17 15 17 56 3z m-2019 -54 c0 -14 -5 -25 -12 -25 -6
0 -8 3 -5 6 3 4 2 15 -4 25 -7 15 -6 19 6 19 9 0 15 -9 15 -25z m638 5 c-7
-11 -15 -15 -17 -9 -2 6 3 15 10 20 20 12 21 11 7 -11z m-1631 -70 c-4 -17 0
-20 30 -20 36 0 36 0 18 -20 -22 -24 -43 -22 -72 8 -12 12 -28 22 -35 23 -13
1 39 28 56 29 4 0 6 -9 3 -20z m333 -30 c0 -5 -5 -10 -11 -10 -5 0 -7 5 -4 10
3 6 8 10 11 10 2 0 4 -4 4 -10z m75 -10 c-3 -5 -10 -10 -16 -10 -5 0 -9 5 -9
10 0 6 7 10 16 10 8 0 12 -4 9 -10z m-135 -15 c0 -8 -4 -15 -10 -15 -5 0 -7 7
-4 15 4 8 8 15 10 15 2 0 4 -7 4 -15z m2350 -5 c0 -5 -7 -10 -16 -10 -8 0 -12
5 -9 10 3 6 10 10 16 10 5 0 9 -4 9 -10z m-2020 -52 c0 -5 5 -6 10 -3 6 4 10
-5 10 -19 0 -14 -4 -26 -10 -26 -5 0 -7 -7 -3 -16 3 -8 11 -13 19 -10 20 8 -9
-78 -42 -122 -37 -49 -46 -54 -60 -34 -10 14 -10 20 2 33 8 8 14 24 14 35 0
10 9 30 20 44 21 27 27 51 8 32 -7 -7 -21 -12 -32 -12 -19 0 -19 2 7 25 15 14
27 30 27 35 0 6 10 11 23 11 l22 2 -22 4 c-14 3 -23 12 -23 23 0 13 5 17 15
14 8 -4 15 -10 15 -16z m2206 -26 c17 -43 6 -57 -22 -27 -28 31 -31 55 -6 55
10 0 22 -12 28 -28z m-2896 -2 c0 -5 -5 -10 -11 -10 -5 0 -7 5 -4 10 3 6 8 10
11 10 2 0 4 -4 4 -10z m2759 -49 c-15 -5 -22 6 -14 19 6 9 10 9 16 -1 5 -8 4
-15 -2 -18z m-2462 -13 c-2 -7 -12 -12 -22 -10 -13 3 -16 -1 -12 -12 7 -17 -8
-22 -18 -7 -3 5 5 17 17 25 27 19 41 20 35 4z m599 -24 c-4 -9 -9 -15 -11 -12
-3 3 -3 13 1 22 4 9 9 15 11 12 3 -3 3 -13 -1 -22z m1814 7 c0 -21 26 -36 35
-21 4 6 12 10 18 9 9 0 9 -2 0 -6 -7 -2 -13 -13 -13 -23 0 -10 -10 -20 -22
-24 -34 -9 -57 -5 -28 4 15 5 18 8 8 9 -18 1 -27 25 -20 54 6 23 22 22 22 -2z
m-2178 -42 c-22 -8 -22 -7 -15 19 5 21 6 21 18 5 11 -15 11 -19 -3 -24z m533
21 c3 -5 1 -10 -4 -10 -6 0 -11 5 -11 10 0 6 2 10 4 10 3 0 8 -4 11 -10z
m-988 -6 c-3 -3 -12 -4 -19 -1 -8 3 -5 6 6 6 11 1 17 -2 13 -5z m215 -36 c-12
-12 -42 -4 -42 12 0 5 7 10 15 10 8 0 15 6 15 13 0 6 5 4 11 -6 8 -13 8 -22 1
-29z m2214 -36 c19 -11 23 -18 18 -40 -8 -33 -4 -29 -35 -37 -20 -5 -28 -2
-33 12 -3 10 -17 36 -31 58 -36 59 -32 69 16 43 23 -13 52 -29 65 -36z m-2326
33 c0 -8 -6 -15 -14 -15 -17 0 -28 14 -19 24 12 12 33 6 33 -9z m974 -1 c9
-24 8 -25 -13 -12 -11 7 -17 16 -15 20 8 13 21 9 28 -8z m-1304 -9 c15 -18 34
-20 24 -2 -5 8 -2 8 9 -2 21 -17 22 -35 2 -28 -8 4 -17 2 -20 -3 -5 -8 -35 5
-65 28 -5 3 21 22 31 22 4 0 12 -7 19 -15z m703 1 c3 -12 -30 -32 -39 -24 -11
12 5 40 21 36 9 -2 17 -7 18 -12z m493 -11 c-11 -8 -14 -15 -8 -15 21 0 13
-16 -14 -29 -15 -6 -28 -10 -30 -9 -6 7 48 68 59 68 7 0 3 -7 -7 -15z m-559
-27 c-3 -8 -6 -5 -6 6 -1 11 2 17 5 13 3 -3 4 -12 1 -19z m1483 18 c0 -3 -4
-8 -10 -11 -5 -3 -10 -1 -10 4 0 6 5 11 10 11 6 0 10 -2 10 -4z m-1384 -28 c4
-4 -1 -10 -10 -14 -12 -5 -14 -10 -5 -20 8 -10 4 -15 -23 -22 -40 -11 -50 1
-32 37 13 26 52 37 70 19z m580 -32 c3 -19 4 -41 2 -48 -3 -7 2 -18 10 -24 10
-7 13 -17 7 -30 -7 -17 -8 -17 -15 6 -5 14 -9 22 -10 18 -6 -18 -8 -29 -9 -47
0 -11 -8 -27 -17 -35 -12 -12 -12 -16 -2 -17 9 0 9 -2 1 -5 -6 -3 -21 3 -32
13 -23 19 -27 33 -10 33 5 0 7 -4 4 -10 -3 -5 -1 -10 4 -10 18 0 12 24 -9 43
-11 9 -20 24 -20 34 0 9 3 13 7 10 3 -4 12 2 20 13 8 11 24 20 36 20 l22 1
-21 18 c-16 13 -19 22 -12 34 15 28 37 20 44 -17z m-515 -19 c-10 -9 -11 -8
-5 6 3 10 9 15 12 12 3 -3 0 -11 -7 -18z m1658 -38 c-5 -10 -9 -25 -9 -35 0
-20 -37 -54 -58 -54 -8 0 -12 -6 -8 -15 4 -10 -1 -15 -14 -15 -11 0 -20 7 -20
15 0 14 38 41 53 37 4 -1 7 10 8 26 0 15 3 21 6 15 10 -25 23 -12 29 28 4 26
10 36 15 28 4 -7 3 -21 -2 -30z m-2014 11 c3 -5 1 -10 -4 -10 -6 0 -11 5 -11
10 0 6 2 10 4 10 3 0 8 -4 11 -10z m83 -12 c-3 -7 -13 -15 -24 -17 -16 -3 -17
-1 -5 13 16 19 34 21 29 4z m1752 -68 c0 -5 -2 -10 -4 -10 -3 0 -8 5 -11 10
-3 6 -1 10 4 10 6 0 11 -4 11 -10z m-1755 -30 c3 -5 1 -10 -4 -10 -6 0 -11 5
-11 10 0 6 2 10 4 10 3 0 8 -4 11 -10z m2025 6 c0 -3 -4 -8 -10 -11 -5 -3 -10
-1 -10 4 0 6 5 11 10 11 6 0 10 -2 10 -4z m128 -46 c1 -36 -3 -50 -13 -50 -20
0 -23 10 -13 58 12 57 24 53 26 -8z m-187 -33 c-16 -16 -13 -57 3 -63 8 -3 12
-12 10 -19 -3 -7 5 -20 18 -29 20 -15 21 -18 7 -26 -9 -6 -20 -21 -23 -35 -4
-14 -10 -25 -15 -25 -16 0 -36 65 -35 118 0 28 -4 52 -8 52 -19 0 -6 49 20 76
l27 29 3 -34 c2 -18 -1 -38 -7 -44z m374 43 c-3 -5 -12 -10 -18 -10 -7 0 -6 4
3 10 19 12 23 12 15 0z m-950 -20 c3 -5 1 -10 -4 -10 -6 0 -11 5 -11 10 0 6 2
10 4 10 3 0 8 -4 11 -10z m-255 -30 c0 -5 -2 -10 -4 -10 -3 0 -8 5 -11 10 -3
6 -1 10 4 10 6 0 11 -4 11 -10z m1185 0 c3 -5 1 -10 -4 -10 -6 0 -11 5 -11 10
0 6 2 10 4 10 3 0 8 -4 11 -10z m-225 -6 c0 -2 -4 -14 -9 -28 -12 -29 11 -58
31 -38 6 6 17 8 24 5 12 -5 19 8 15 30 0 4 4 7 9 7 15 0 12 -50 -4 -56 -8 -3
-17 -15 -20 -27 -4 -16 -8 -19 -17 -10 -14 14 -52 4 -45 -12 5 -14 -26 -26
-42 -16 -12 8 -26 104 -18 128 4 14 16 19 41 19 19 0 35 -1 35 -2z m-720 -28
c0 -24 -17 -28 -23 -6 -3 13 0 20 9 20 8 0 14 -6 14 -14z m95 -5 c-3 -10 1
-24 10 -31 8 -7 12 -17 9 -22 -4 -6 -10 -5 -15 3 -6 10 -9 8 -9 -8 0 -14 6
-23 15 -23 8 0 15 -4 15 -10 0 -13 -6 -13 -29 2 -15 9 -17 17 -10 34 5 14 4
26 -1 29 -16 10 -11 45 6 45 10 0 13 -6 9 -19z m145 -7 c0 -8 -7 -14 -15 -14
-17 0 -18 2 -9 24 7 18 24 12 24 -10z m-488 -6 c-7 -7 -12 -8 -12 -2 0 14 12
26 19 19 2 -3 -1 -11 -7 -17z m158 -12 c0 -13 -7 -29 -15 -36 -8 -7 -15 -19
-15 -27 0 -13 -3 -13 -16 -2 -15 12 -14 15 10 34 25 20 34 36 19 34 -20 -3
-24 2 -13 16 16 19 30 10 30 -19z m50 26 c0 -14 -11 -21 -26 -15 -21 8 -17 23
6 23 11 0 20 -4 20 -8z m-1420 -6 c0 -11 -19 -15 -25 -6 -3 5 1 10 9 10 9 0
16 -2 16 -4z m1750 -22 c0 -8 -9 -14 -20 -14 -22 0 -26 10 -8 28 13 13 28 7
28 -14z m660 6 c12 -8 11 -10 -7 -10 -13 0 -23 5 -23 10 0 13 11 13 30 0z
m-2315 -20 c3 -5 1 -10 -4 -10 -6 0 -11 5 -11 10 0 6 2 10 4 10 3 0 8 -4 11
-10z m1325 -11 c0 -6 -4 -7 -10 -4 -5 3 -10 11 -10 16 0 6 5 7 10 4 6 -3 10
-11 10 -16z m584 -100 c-7 -44 -19 -44 -28 1 -7 40 -30 29 -24 -11 5 -34 -21
-42 -29 -9 -5 19 -7 18 -40 -10 -33 -30 -63 -39 -63 -20 0 6 -5 10 -11 10 -5
0 -7 -4 -4 -10 3 -5 -6 -12 -20 -16 -14 -3 -24 -9 -21 -12 8 -8 -26 -31 -46
-32 -10 0 -18 -4 -18 -10 0 -5 -7 -10 -15 -10 -8 0 -15 5 -15 10 0 6 6 10 14
10 18 0 17 38 -1 44 -21 8 -15 28 6 21 20 -6 46 18 36 35 -5 9 1 12 21 9 4 0
11 5 15 13 7 10 9 9 9 -4 0 -13 8 -17 30 -15 16 1 30 5 30 8 0 4 19 14 42 24
27 11 38 19 30 24 -8 5 0 8 19 8 21 0 38 7 48 20 16 20 16 20 28 -9 8 -18 10
-46 7 -69z m-447 37 c-4 -10 -1 -13 9 -9 19 7 18 -12 -3 -32 -12 -13 -13 -19
-4 -24 21 -13 -8 -61 -36 -61 -27 0 -30 15 -7 37 14 15 14 17 0 25 -9 5 -22 6
-29 1 -6 -4 -18 -8 -24 -9 -25 -4 -12 6 27 22 27 11 42 24 46 40 3 13 11 24
16 24 6 0 8 -7 5 -14z m-1450 -98 c-8 -5 -6 -8 6 -8 12 0 16 -5 11 -12 -5 -10
-4 -10 6 -1 10 9 19 9 43 -3 21 -11 32 -13 40 -5 18 18 28 12 21 -14 -4 -18
-2 -25 9 -25 8 0 17 7 20 15 5 12 12 13 53 0 26 -8 50 -18 53 -22 3 -4 12 -8
19 -9 29 -2 33 -5 27 -14 -6 -9 8 -14 28 -11 8 1 37 -24 37 -33 0 -2 -8 -7
-17 -10 -10 -3 -2 -4 17 -2 43 4 60 -1 60 -19 0 -8 8 -16 18 -19 9 -2 28 -8
41 -11 20 -6 23 -4 17 10 -5 15 -1 16 31 11 51 -8 84 -13 106 -14 20 -2 22
-18 4 -37 -26 -26 -78 -19 -104 14 -11 14 -12 14 -13 -2 0 -15 -5 -17 -22 -10
-13 4 -38 7 -56 7 -18 0 -27 3 -21 6 14 9 -53 22 -74 15 -8 -4 -18 -1 -23 6
-4 7 -3 10 4 5 6 -3 13 -2 17 4 7 11 0 12 -57 12 -21 0 -40 4 -44 9 -3 5 -14
9 -25 9 -10 0 -19 5 -19 11 0 6 7 8 18 4 12 -4 14 -3 6 5 -10 10 -95 38 -134
44 -30 4 -109 50 -103 59 3 6 1 7 -5 3 -7 -4 -22 0 -34 8 -12 9 -18 16 -12 16
24 0 9 29 -18 34 -15 3 -28 10 -28 15 0 5 24 0 54 -12 34 -13 50 -25 43 -29z
m1073 37 c0 -8 0 -18 1 -22 0 -4 -4 -9 -9 -11 -6 -2 -9 8 -8 23 1 26 16 36 16
10z m-760 1 c0 -2 -7 -9 -15 -16 -13 -11 -14 -10 -9 4 5 14 24 23 24 12z m103
-49 c-9 -15 -21 4 -15 25 5 21 6 21 12 2 4 -10 5 -22 3 -27z m1125 20 c16 -12
-5 -40 -25 -33 -7 3 -13 -1 -13 -9 0 -8 -6 -15 -14 -15 -10 0 -13 -8 -10 -24
3 -19 -1 -25 -24 -29 -34 -7 -56 11 -24 19 15 4 25 18 32 45 8 30 16 39 33 40
12 0 16 3 10 6 -7 2 -13 9 -13 14 0 9 28 1 48 -14z m-240 -7 c-14 -22 -24 -19
-15 5 4 8 11 15 17 15 6 0 6 -7 -2 -20z m-974 -35 c-6 -16 -24 -21 -24 -7 0
11 11 22 21 22 5 0 6 -7 3 -15z m464 -9 c3 -14 -1 -16 -15 -12 -15 5 -19 0
-21 -26 -2 -26 0 -30 10 -20 24 24 29 12 8 -18 -27 -38 -39 -38 -38 -1 1 16
-7 38 -17 48 -17 16 -17 18 -2 21 9 2 17 7 17 12 0 9 29 19 45 15 6 -1 12 -10
13 -19z m-353 -5 c0 -8 -6 -16 -14 -19 -8 -3 -11 0 -7 7 4 6 3 11 -2 11 -6 0
-13 -8 -16 -17 -6 -15 -8 -15 -16 -3 -19 29 -11 41 23 38 19 -2 32 -8 32 -17z
m845 9 c0 -5 -4 -10 -10 -10 -5 0 -10 5 -10 10 0 6 5 10 10 10 6 0 10 -4 10
-10z m-246 -16 c3 -8 2 -12 -4 -9 -6 3 -10 10 -10 16 0 14 7 11 14 -7z m56 6
c0 -5 -4 -10 -10 -10 -5 0 -10 5 -10 10 0 6 5 10 10 10 6 0 10 -4 10 -10z m85
0 c-3 -5 -11 -10 -16 -10 -6 0 -7 5 -4 10 3 6 11 10 16 10 6 0 7 -4 4 -10z
m-500 -9 c19 -8 19 -8 -3 -20 -12 -7 -20 -16 -17 -22 4 -5 11 -7 16 -4 5 4 9
4 9 1 0 -2 3 -12 6 -21 6 -14 -1 -16 -57 -10 -35 4 -67 12 -71 18 -7 12 19 36
41 37 7 0 11 6 7 15 -4 11 2 15 22 14 15 0 36 -4 47 -8z m325 -7 c0 -2 -7 -4
-15 -4 -8 0 -15 4 -15 10 0 5 7 7 15 4 8 -4 15 -8 15 -10z m-110 -4 c0 -5 -5
-10 -11 -10 -5 0 -7 5 -4 10 3 6 8 10 11 10 2 0 4 -4 4 -10z m-360 -20 c0 -5
-4 -10 -9 -10 -6 0 -13 5 -16 10 -3 6 1 10 9 10 9 0 16 -4 16 -10z m528 -2
c-6 -18 -22 -20 -43 -3 -19 14 -18 14 13 15 22 0 32 -4 30 -12z m221 -13 c0
-5 -9 -10 -21 -9 -12 0 -29 -7 -40 -18 -25 -25 -38 -23 -38 6 0 15 7 26 18 29
29 8 82 3 81 -8z m-565 -31 c3 -8 2 -12 -4 -9 -6 3 -10 10 -10 16 0 14 7 11
14 -7z m290 -27 c17 -13 17 -14 -8 -30 -36 -24 -43 -21 -38 13 5 33 18 37 46
17z m216 3 c0 -5 -2 -10 -4 -10 -3 0 -8 5 -11 10 -3 6 -1 10 4 10 6 0 11 -4
11 -10z m-110 -10 c0 -5 -8 -10 -17 -10 -15 0 -16 2 -3 10 19 12 20 12 20 0z
m-635 -10 c19 -8 19 -9 -2 -9 -12 -1 -25 4 -28 9 -7 12 2 12 30 0z m715 0 c0
-5 -2 -10 -4 -10 -3 0 -8 5 -11 10 -3 6 -1 10 4 10 6 0 11 -4 11 -10z m-443
-55 c6 -2 10 -11 9 -19 -2 -17 -16 -34 -16 -20 0 5 -14 9 -32 9 -25 0 -31 4
-33 22 -1 19 2 21 29 17 17 -3 36 -7 43 -9z m450 -14 c16 0 16 1 -2 9 -18 8
-18 9 -2 9 11 1 21 -8 24 -19 3 -11 12 -20 19 -20 8 0 14 -4 14 -10 0 -6 -28
-10 -65 -10 -36 0 -65 2 -65 5 0 2 5 15 11 29 10 20 15 23 30 16 10 -6 26 -10
36 -9z m-107 -26 c0 -8 -4 -15 -10 -15 -5 0 -10 7 -10 15 0 8 5 15 10 15 6 0
10 -7 10 -15z m265 5 c-3 -5 -10 -10 -16 -10 -5 0 -9 5 -9 10 0 6 7 10 16 10
8 0 12 -4 9 -10z m-302 -15 c-3 -9 -8 -14 -10 -11 -3 3 -2 9 2 15 9 16 15 13
8 -4z"/>
<path d="M2350 4391 c0 -6 -24 -12 -52 -14 -41 -3 -48 -5 -30 -11 16 -6 24
-19 29 -50 l6 -41 9 30 c5 17 10 36 10 43 1 6 6 12 12 13 70 5 66 8 49 -25
-11 -21 -12 -31 -4 -34 6 -2 11 -10 11 -18 0 -16 16 -19 25 -4 4 6 10 8 15 5
5 -3 12 10 16 29 5 31 8 34 25 23 20 -13 24 -11 33 19 6 20 1 23 -57 33 -78
13 -97 14 -97 2z"/>
<path d="M1945 4380 c-3 -5 2 -10 12 -10 14 0 15 -2 4 -9 -9 -6 -10 -11 -2
-15 6 -4 11 -4 11 0 0 3 6 1 14 -5 11 -9 16 -9 22 0 4 7 -2 20 -16 31 -25 20
-36 22 -45 8z"/>
<path d="M2767 4383 c-9 -15 5 -73 18 -73 6 0 20 -9 30 -20 21 -24 35 -18 35
16 0 13 5 24 11 24 7 0 9 -10 5 -25 -4 -15 -2 -25 5 -25 6 0 13 8 16 18 3 14
11 18 29 14 13 -2 24 -8 24 -12 0 -4 9 -10 21 -13 15 -4 23 0 26 14 5 16 11
19 37 14 28 -5 29 -5 11 6 -11 7 -31 14 -45 15 -14 2 -26 8 -28 14 -2 5 -8 7
-14 4 -5 -3 -29 -1 -54 6 -34 10 -47 10 -58 1 -12 -10 -18 -8 -33 8 -18 22
-29 26 -36 14z"/>
<path d="M1960 4319 c0 -5 5 -7 10 -4 6 3 10 8 10 11 0 2 -4 4 -10 4 -5 0 -10
-5 -10 -11z"/>
<path d="M1741 4268 c0 -13 4 -32 9 -43 7 -18 9 -18 15 -3 3 9 2 25 -4 36 -6
11 -7 22 -4 26 3 3 1 6 -5 6 -7 0 -12 -10 -11 -22z"/>
<path d="M2827 4234 c-3 -4 -4 -11 -1 -15 7 -12 54 -11 54 1 0 6 -4 10 -9 10
-5 0 -16 2 -23 5 -8 3 -17 3 -21 -1z"/>
<path d="M1483 4207 c-27 -8 -33 -15 -33 -38 0 -36 12 -43 34 -18 13 16 20 18
31 9 11 -9 16 -7 24 8 16 31 -14 52 -56 39z"/>
<path d="M3120 4190 c0 -5 11 -10 25 -10 14 0 25 5 25 10 0 6 -11 10 -25 10
-14 0 -25 -4 -25 -10z"/>
<path d="M3230 4180 c0 -5 7 -10 15 -10 8 0 15 5 15 10 0 6 -7 10 -15 10 -8 0
-15 -4 -15 -10z"/>
<path d="M2990 4161 c0 -14 5 -18 20 -14 11 3 20 12 20 19 0 8 -9 14 -20 14
-13 0 -20 -7 -20 -19z"/>
<path d="M2877 4151 c6 -24 37 -33 59 -16 16 12 16 13 -4 24 -34 18 -61 14
-55 -8z"/>
<path d="M3303 4134 c-9 -23 5 -44 30 -44 13 0 29 -6 35 -12 10 -10 15 -10 22
2 15 23 12 33 -9 27 -15 -3 -21 1 -23 17 -3 24 -46 32 -55 10z"/>
<path d="M3030 4070 c0 -5 5 -10 10 -10 6 0 10 5 10 10 0 6 -4 10 -10 10 -5 0
-10 -4 -10 -10z"/>
<path d="M3660 4073 c8 -2 25 -9 37 -15 13 -6 26 -8 30 -5 3 4 -1 7 -10 7 -9
0 -17 5 -17 10 0 6 -12 10 -27 9 -16 0 -21 -3 -13 -6z"/>
<path d="M2700 4060 c0 -5 7 -7 15 -4 8 4 15 8 15 10 0 2 -7 4 -15 4 -8 0 -15
-4 -15 -10z"/>
<path d="M3451 4044 c0 -11 3 -14 6 -6 3 7 2 16 -1 19 -3 4 -6 -2 -5 -13z"/>
<path d="M2780 3899 c0 -5 5 -7 10 -4 6 3 10 8 10 11 0 2 -4 4 -10 4 -5 0 -10
-5 -10 -11z"/>
<path d="M3800 3781 c0 -6 5 -13 10 -16 6 -3 10 1 10 9 0 9 -4 16 -10 16 -5 0
-10 -4 -10 -9z"/>
<path d="M3595 3770 c3 -5 8 -10 11 -10 2 0 4 5 4 10 0 6 -5 10 -11 10 -5 0
-7 -4 -4 -10z"/>
<path d="M3506 3681 c-4 -5 -2 -12 3 -15 5 -4 12 -2 15 3 4 5 2 12 -3 15 -5 4
-12 2 -15 -3z"/>
<path d="M3150 3430 c0 -5 5 -10 10 -10 6 0 10 5 10 10 0 6 -4 10 -10 10 -5 0
-10 -4 -10 -10z"/>
<path d="M3258 3403 c-14 -3 -16 -9 -8 -23 6 -11 7 -28 1 -42 -10 -28 -4 -47
20 -70 36 -35 46 -23 48 54 2 84 -7 95 -61 81z"/>
<path d="M3372 3388 c-23 -23 -13 -38 24 -38 35 0 36 1 22 22 -18 27 -30 32
-46 16z"/>
<path d="M3360 3310 c0 -5 5 -10 11 -10 5 0 7 5 4 10 -3 6 -8 10 -11 10 -2 0
-4 -4 -4 -10z"/>
<path d="M3330 3263 c0 -7 6 -13 14 -13 8 0 17 -6 19 -12 3 -8 6 -6 6 4 1 9 8
21 16 26 11 5 5 8 -20 8 -22 0 -35 -5 -35 -13z"/>
<path d="M2100 3931 c0 -11 26 -22 34 -14 12 12 5 23 -14 23 -11 0 -20 -4 -20
-9z"/>
<path d="M1110 3979 c0 -5 5 -7 10 -4 6 3 10 8 10 11 0 2 -4 4 -10 4 -5 0 -10
-5 -10 -11z"/>
<path d="M1045 3831 c-3 -5 -1 -12 5 -16 6 -4 8 -11 5 -16 -4 -5 4 -9 17 -9
16 0 19 3 10 8 -7 5 -10 16 -6 25 7 18 -20 25 -31 8z"/>
<path d="M1500 3796 c0 -28 14 -40 35 -32 8 3 11 13 8 25 -3 12 -9 18 -14 15
-5 -3 -9 0 -9 5 0 6 -4 11 -10 11 -5 0 -10 -11 -10 -24z"/>
<path d="M1550 3742 c-13 -6 -16 -24 -11 -66 1 -5 8 -3 16 4 9 7 18 10 22 7 3
-4 12 -2 20 4 9 8 13 8 13 1 0 -6 -4 -14 -10 -17 -17 -11 -11 -23 9 -18 22 6
19 22 -11 66 -20 28 -24 30 -48 19z"/>
<path d="M1370 3695 c-7 -9 -29 -15 -55 -15 -49 0 -105 -17 -105 -33 0 -6 -3
-8 -6 -4 -3 3 -14 -3 -24 -13 -12 -12 -26 -16 -40 -13 -19 5 -21 3 -15 -16 7
-22 -10 -30 -18 -8 -3 6 -6 0 -6 -15 -1 -14 -7 -29 -13 -31 -10 -4 -10 -6 0
-6 8 -1 2 -21 -18 -58 -23 -43 -29 -64 -24 -86 4 -20 3 -27 -5 -23 -7 5 -9 1
-5 -8 3 -9 12 -16 20 -16 8 0 26 -19 41 -42 15 -24 38 -56 51 -72 22 -27 22
-30 6 -39 -13 -7 -21 -4 -34 13 -19 25 -35 13 -25 -19 8 -26 66 -37 81 -16 14
19 62 11 82 -13 6 -9 12 -13 12 -9 0 4 19 -4 43 -17 37 -21 42 -28 45 -65 3
-33 7 -41 23 -41 10 0 19 5 19 10 0 6 -3 10 -7 10 -5 0 -9 18 -10 40 -1 45 9
52 25 16 8 -19 8 -26 -1 -30 -9 -3 -9 -5 1 -5 19 -1 27 29 13 51 -15 24 -1 70
42 143 39 64 36 60 48 48 14 -14 55 20 44 36 -3 6 1 11 9 11 15 0 19 10 31 68
4 19 3 32 -3 32 -6 0 -12 -5 -14 -11 -5 -14 -40 -19 -55 -7 -14 11 0 68 20 83
16 11 37 49 37 64 0 6 -7 8 -15 5 -8 -4 -15 -2 -15 4 0 6 6 12 13 15 6 2 9 8
5 12 -4 4 -14 0 -23 -8 -8 -9 -22 -14 -31 -10 -8 3 -24 -3 -35 -13 -17 -15
-21 -16 -19 -4 6 40 -1 60 -19 60 -11 0 -23 5 -26 10 -5 8 -11 7 -21 -1 -21
-17 -29 -3 -16 26 13 28 10 32 -8 10z m40 -71 c0 -8 -6 -11 -15 -8 -8 4 -15 9
-15 13 0 4 7 8 15 8 8 0 15 -6 15 -13z m-10 -130 c0 -8 -4 -12 -10 -9 -5 3
-10 1 -10 -5 0 -7 6 -10 14 -7 15 6 40 -16 30 -26 -3 -3 -2 -12 2 -19 12 -18
16 -38 18 -78 1 -31 -2 -35 -25 -38 -15 -2 -35 -12 -45 -23 -26 -29 -49 -24
-51 11 -1 17 2 30 6 30 5 0 9 6 8 13 -2 52 4 69 21 65 16 -4 42 12 42 27 0 3
-11 5 -25 5 -14 0 -25 -4 -25 -10 0 -13 -27 -13 -36 1 -9 15 13 53 39 66 32
16 47 15 47 -3z m-160 -10 c0 -7 -27 -34 -33 -34 -3 0 -3 9 0 20 5 17 33 30
33 14z m160 -204 c0 -5 -9 -14 -20 -20 -24 -13 -26 -7 -4 14 18 18 24 20 24 6z
m-156 -34 c-3 -9 -10 -13 -15 -10 -5 3 -3 11 4 19 15 16 19 13 11 -9z m93 -48
c-3 -8 -6 -5 -6 6 -1 11 2 17 5 13 3 -3 4 -12 1 -19z"/>
<path d="M1385 3389 c-4 -6 -5 -12 -2 -15 2 -3 7 2 10 11 7 17 1 20 -8 4z"/>
<path d="M1355 3339 c-4 -6 -5 -12 -2 -15 2 -3 7 2 10 11 7 17 1 20 -8 4z"/>
<path d="M858 3683 c-10 -13 -10 -17 0 -20 6 -3 10 -8 8 -11 -2 -4 11 -8 30
-9 38 -3 38 11 0 39 -22 16 -25 16 -38 1z"/>
<path d="M1520 3639 c0 -5 5 -7 10 -4 6 3 10 8 10 11 0 2 -4 4 -10 4 -5 0 -10
-5 -10 -11z"/>
<path d="M835 3610 c-3 -5 -1 -10 4 -10 6 0 11 5 11 10 0 6 -2 10 -4 10 -3 0
-8 -4 -11 -10z"/>
<path d="M870 3525 c-7 -9 -8 -15 -2 -15 5 0 12 7 16 15 3 8 4 15 2 15 -2 0
-9 -7 -16 -15z"/>
<path d="M1055 3519 c-10 -15 3 -25 16 -12 7 7 7 13 1 17 -6 3 -14 1 -17 -5z"/>
<path d="M1015 3510 c-3 -5 -1 -10 4 -10 6 0 11 5 11 10 0 6 -2 10 -4 10 -3 0
-8 -4 -11 -10z"/>
<path d="M1830 3440 c0 -5 5 -10 10 -10 6 0 10 5 10 10 0 6 -4 10 -10 10 -5 0
-10 -4 -10 -10z"/>
<path d="M651 3344 c0 -11 3 -14 6 -6 3 7 2 16 -1 19 -3 4 -6 -2 -5 -13z"/>
<path d="M642 3311 c-23 -14 2 -91 30 -91 6 0 8 9 5 20 -3 11 -2 20 2 20 4 0
7 9 7 20 0 25 -11 26 -26 3 -8 -15 -9 -13 -4 10 7 29 6 31 -14 18z"/>
<path d="M790 3304 c0 -20 17 -26 24 -8 8 21 8 21 -9 21 -8 0 -15 -6 -15 -13z"/>
<path d="M1556 3283 c-4 -9 -2 -21 4 -27 7 -7 10 -2 10 17 0 31 -5 34 -14 10z"/>
<path d="M630 3206 c0 -14 5 -26 10 -26 6 0 10 9 10 19 0 11 -4 23 -10 26 -6
4 -10 -5 -10 -19z"/>
<path d="M736 3221 c-4 -7 -5 -15 -2 -18 9 -9 19 4 14 18 -4 11 -6 11 -12 0z"/>
<path d="M1318 3093 c6 -2 18 -2 25 0 6 3 1 5 -13 5 -14 0 -19 -2 -12 -5z"/>
<path d="M1085 3070 c-10 -16 6 -32 27 -27 14 4 18 2 14 -9 -3 -8 0 -14 5 -14
7 0 9 9 5 23 -3 12 -6 25 -6 30 0 11 -38 9 -45 -3z"/>
<path d="M720 3060 c0 -5 5 -10 10 -10 6 0 10 5 10 10 0 6 -4 10 -10 10 -5 0
-10 -4 -10 -10z"/>
<path d="M1005 3021 c-6 -11 29 -34 38 -25 3 3 3 12 0 20 -6 16 -29 19 -38 5z"/>
<path d="M1060 2977 c1 -51 34 -78 42 -34 3 17 -2 26 -19 34 -17 8 -23 8 -23
0z"/>
<path d="M1334 2879 c-10 -16 10 -31 37 -27 22 3 22 4 5 21 -20 20 -32 22 -42
6z"/>
<path d="M877 2860 c-4 -15 0 -20 15 -20 13 0 18 6 16 17 -5 24 -25 27 -31 3z"/>
<path d="M547 2628 c-6 -21 -2 -36 7 -27 10 11 16 49 8 49 -5 0 -12 -10 -15
-22z"/>
<path d="M1212 2625 c-17 -38 -15 -42 19 -37 21 3 29 9 25 19 -3 8 -6 21 -6
29 0 23 -26 16 -38 -11z"/>
<path d="M1115 2520 c3 -5 8 -10 11 -10 2 0 4 5 4 10 0 6 -5 10 -11 10 -5 0
-7 -4 -4 -10z"/>
<path d="M2191 2484 c-11 -14 -11 -18 2 -32 13 -13 19 -13 31 -2 15 11 20 7
17 -12 0 -4 6 -5 14 -2 17 7 21 34 5 34 -5 0 -10 7 -10 16 0 14 -3 14 -15 4
-10 -9 -15 -9 -15 -1 0 15 -12 13 -29 -5z"/>
<path d="M836 2481 c-4 -7 -5 -15 -2 -18 9 -9 19 4 14 18 -4 11 -6 11 -12 0z"/>
<path d="M1430 2454 c0 -14 3 -14 15 -4 8 7 15 14 15 16 0 2 -7 4 -15 4 -8 0
-15 -7 -15 -16z"/>
<path d="M1380 2429 c0 -5 5 -7 10 -4 6 3 10 8 10 11 0 2 -4 4 -10 4 -5 0 -10
-5 -10 -11z"/>
<path d="M1452 2423 c5 -25 28 -28 28 -4 0 12 -6 21 -16 21 -9 0 -14 -7 -12
-17z"/>
<path d="M1895 2430 c3 -5 8 -10 11 -10 2 0 4 5 4 10 0 6 -5 10 -11 10 -5 0
-7 -4 -4 -10z"/>
<path d="M990 2410 c0 -5 5 -10 10 -10 6 0 10 5 10 10 0 6 -4 10 -10 10 -5 0
-10 -4 -10 -10z"/>
<path d="M1011 2382 c0 -7 -5 -11 -10 -8 -9 6 -48 -32 -43 -42 2 -3 -4 -9 -13
-12 -9 -3 -16 -8 -15 -10 1 -3 -3 -18 -9 -33 -6 -16 -11 -40 -11 -53 0 -14 -4
-23 -8 -20 -12 7 -10 -68 2 -76 8 -5 8 -8 0 -8 -8 0 -8 -12 2 -41 16 -44 41
-83 92 -142 18 -21 30 -42 27 -48 -4 -5 -10 -7 -15 -4 -5 3 -18 -2 -29 -12
-10 -10 -31 -26 -45 -36 -29 -20 -26 -37 5 -37 14 0 19 7 19 27 0 14 3 24 6
20 4 -3 13 0 21 8 8 8 20 15 26 14 9 0 8 -2 0 -6 -24 -9 -13 -19 21 -20 22 -1
41 6 52 18 12 14 13 19 4 19 -7 0 -11 2 -8 5 2 3 18 -2 34 -10 21 -10 47 -13
89 -9 33 4 79 7 103 8 46 1 63 16 54 48 -4 15 -7 17 -13 6 -6 -9 -8 -3 -7 17
2 36 -17 75 -37 75 -8 0 -15 5 -15 10 0 13 29 59 53 82 19 20 22 34 9 42 -14
9 -7 44 13 66 18 20 18 22 2 50 -9 15 -14 35 -11 44 4 11 -2 19 -17 25 -13 5
-19 10 -14 10 6 1 -3 8 -19 16 -21 11 -31 12 -36 4 -10 -15 0 -50 11 -43 5 3
12 -3 16 -13 3 -10 12 -25 18 -33 21 -26 27 -67 10 -74 -20 -7 -20 -46 0 -46
36 0 -5 -53 -44 -56 -21 -1 -32 5 -44 25 -14 24 -14 32 -2 67 8 21 14 49 15
62 0 12 5 22 11 22 6 0 9 6 6 13 -2 6 -11 11 -19 9 -8 -1 -21 9 -28 23 -7 14
-22 25 -32 25 -10 0 -18 5 -18 11 0 8 -4 8 -15 -1 -8 -6 -20 -8 -27 -4 -7 4
-5 -2 4 -13 13 -14 27 -18 49 -15 24 4 30 1 27 -9 -8 -22 -70 -14 -87 10 -7
12 -24 21 -37 21 -12 0 -26 5 -29 11 -4 6 -13 8 -20 5 -8 -3 -16 3 -18 12 -3
9 -5 11 -6 4z m206 -154 c-3 -8 -6 -5 -6 6 -1 11 2 17 5 13 3 -3 4 -12 1 -19z
m-21 -43 c-3 -24 -23 -39 -23 -18 0 10 5 21 11 25 15 10 15 10 12 -7z m-46
-19 c0 -3 -4 -8 -10 -11 -5 -3 -10 -1 -10 4 0 6 5 11 10 11 6 0 10 -2 10 -4z
m-40 -13 c0 -5 -7 -17 -15 -27 -15 -20 -15 -20 -15 0 0 12 3 24 7 27 9 9 23 9
23 0z m83 -41 c-2 -10 -13 -24 -25 -31 -20 -12 -20 -12 -2 18 20 34 35 41 27
13z m4 -109 c-12 -47 -22 -54 -30 -22 -3 12 -10 18 -16 14 -24 -14 -9 21 17
41 35 29 43 19 29 -33z m103 -64 c0 -5 -4 -9 -10 -9 -5 0 -10 7 -10 16 0 8 5
12 10 9 6 -3 10 -10 10 -16z"/>
<path d="M3100 2360 c0 -5 5 -10 10 -10 6 0 10 5 10 10 0 6 -4 10 -10 10 -5 0
-10 -4 -10 -10z"/>
<path d="M3036 2334 c-3 -9 -2 -23 4 -32 7 -14 9 -10 10 16 0 35 -5 41 -14 16z"/>
<path d="M2410 2301 c0 -5 5 -13 10 -16 6 -3 10 -2 10 4 0 5 -4 13 -10 16 -5
3 -10 2 -10 -4z"/>
<path d="M1935 2275 c-16 -7 -35 -11 -42 -8 -7 3 -13 -2 -13 -10 0 -20 16 -31
25 -17 8 13 52 13 60 0 10 -16 55 -12 55 4 0 14 -37 47 -50 45 -3 0 -18 -7
-35 -14z"/>
<path d="M3033 2233 c9 -9 20 -13 24 -9 4 4 1 11 -7 16 -25 16 -35 11 -17 -7z"/>
<path d="M574 2003 c2 -16 8 -50 11 -78 9 -71 46 -228 56 -240 12 -12 11 2 -1
45 -6 19 -17 85 -25 145 -9 61 -18 120 -20 133 -8 32 -28 28 -21 -5z"/>
<path d="M1370 1940 c0 -5 5 -10 11 -10 5 0 7 5 4 10 -3 6 -8 10 -11 10 -2 0
-4 -4 -4 -10z"/>
<path d="M1805 1860 c-3 -5 -1 -10 4 -10 6 0 11 5 11 10 0 6 -2 10 -4 10 -3 0
-8 -4 -11 -10z"/>
<path d="M1863 1790 c27 -22 47 -26 47 -10 0 6 -12 15 -26 20 -40 16 -49 12
-21 -10z"/>
<path d="M765 1786 c-6 -6 -9 -21 -7 -32 2 -12 -3 -28 -12 -36 -11 -12 -12
-21 -3 -51 7 -20 17 -37 24 -37 7 0 15 -16 19 -35 3 -19 12 -39 20 -46 11 -9
14 -6 14 16 0 15 -7 33 -15 39 -13 9 -13 16 -3 44 7 17 16 32 19 32 9 0 69 87
72 103 3 15 -115 18 -128 3z"/>
<path d="M660 1651 c0 -5 4 -22 10 -36 13 -33 29 -24 28 15 -1 22 -6 30 -20
30 -10 0 -18 -4 -18 -9z"/>
<path d="M1955 1610 c3 -5 8 -10 11 -10 2 0 4 5 4 10 0 6 -5 10 -11 10 -5 0
-7 -4 -4 -10z"/>
<path d="M990 1603 c0 -6 5 -15 11 -18 6 -4 8 -20 4 -38 -4 -22 -3 -28 3 -18
6 8 17 11 26 8 10 -4 16 -1 16 8 0 9 -6 12 -15 9 -9 -4 -15 0 -15 8 0 17 -29
58 -30 41z"/>
<path d="M750 1456 c0 -19 19 -31 31 -19 5 5 0 14 -11 21 -17 10 -20 10 -20
-2z"/>
<path d="M1230 1180 c0 -5 5 -10 11 -10 5 0 7 5 4 10 -3 6 -8 10 -11 10 -2 0
-4 -4 -4 -10z"/>
<path d="M1500 1021 c0 -6 5 -13 10 -16 6 -3 10 1 10 9 0 9 -4 16 -10 16 -5 0
-10 -4 -10 -9z"/>
<path d="M1205 994 c9 -9 19 -13 23 -10 3 4 0 11 -8 16 -24 15 -33 11 -15 -6z"/>
<path d="M1245 960 c3 -5 8 -10 11 -10 2 0 4 5 4 10 0 6 -5 10 -11 10 -5 0 -7
-4 -4 -10z"/>
<path d="M2208 863 c7 -3 16 -2 19 1 4 3 -2 6 -13 5 -11 0 -14 -3 -6 -6z"/>
<path d="M2136 845 c-24 -10 -26 -13 -10 -19 9 -4 20 -3 23 2 3 5 13 11 21 14
7 2 10 7 5 10 -6 3 -23 0 -39 -7z"/>
<path d="M1340 840 c8 -5 20 -10 25 -10 6 0 3 5 -5 10 -8 5 -19 10 -25 10 -5
0 -3 -5 5 -10z"/>
<path d="M3240 3771 c0 -5 -3 -18 -6 -28 -6 -16 -5 -16 9 2 19 23 21 35 7 35
-5 0 -10 -4 -10 -9z"/>
<path d="M2226 3702 c-2 -4 2 -16 10 -27 11 -14 17 -16 26 -7 8 8 8 15 -2 27
-14 16 -26 19 -34 7z"/>
<path d="M1820 3729 c0 -5 5 -7 10 -4 6 3 10 8 10 11 0 2 -4 4 -10 4 -5 0 -10
-5 -10 -11z"/>
<path d="M3895 3359 c-10 -15 1 -23 20 -15 9 3 13 10 10 16 -8 13 -22 13 -30
-1z"/>
<path d="M3885 3310 c3 -5 11 -10 16 -10 6 0 7 5 4 10 -3 6 -11 10 -16 10 -6
0 -7 -4 -4 -10z"/>
<path d="M3585 3170 c-3 -5 1 -13 10 -16 22 -9 29 1 11 15 -10 8 -16 9 -21 1z"/>
<path d="M3526 3112 c-8 -14 11 -35 27 -29 11 4 13 0 9 -15 -4 -18 -3 -19 17
-7 21 14 28 34 14 42 -19 10 -62 16 -67 9z"/>
<path d="M3470 3060 c0 -5 5 -10 10 -10 6 0 10 5 10 10 0 6 -4 10 -10 10 -5 0
-10 -4 -10 -10z"/>
<path d="M3502 3019 c-10 -15 -8 -18 18 -17 17 1 30 2 30 2 0 1 -8 9 -18 17
-17 15 -20 15 -30 -2z"/>
<path d="M3600 3021 c0 -5 7 -14 15 -21 12 -10 15 -10 15 3 0 8 -7 17 -15 21
-8 3 -15 2 -15 -3z"/>
<path d="M2440 3390 c0 -5 5 -10 11 -10 5 0 7 5 4 10 -3 6 -8 10 -11 10 -2 0
-4 -4 -4 -10z"/>
<path d="M3080 3154 c0 -8 5 -12 10 -9 6 4 8 11 5 16 -9 14 -15 11 -15 -7z"/>
<path d="M3963 3058 c-13 -17 -23 -58 -15 -58 9 0 36 60 30 66 -3 2 -10 -1
-15 -8z"/>
<path d="M4067 2973 c-16 -59 -17 -77 -5 -84 7 -4 18 -3 25 3 9 7 13 7 13 -1
0 -6 7 -11 15 -11 20 0 19 8 -5 57 -23 49 -37 60 -43 36z"/>
<path d="M2328 3113 c7 -3 16 -2 19 1 4 3 -2 6 -13 5 -11 0 -14 -3 -6 -6z"/>
<path d="M4323 2771 c-8 -14 -7 -17 8 -18 24 -2 30 9 15 23 -10 9 -15 8 -23
-5z"/>
<path d="M3835 2810 c-3 -5 -1 -10 4 -10 6 0 11 5 11 10 0 6 -2 10 -4 10 -3 0
-8 -4 -11 -10z"/>
<path d="M3803 2793 c-18 -7 -16 -23 2 -23 8 0 15 7 15 15 0 8 -1 15 -2 14 -2
0 -9 -3 -15 -6z"/>
<path d="M3301 2614 c0 -11 3 -14 6 -6 3 7 2 16 -1 19 -3 4 -6 -2 -5 -13z"/>
<path d="M1806 2105 c4 -8 8 -15 10 -15 2 0 4 7 4 15 0 8 -4 15 -10 15 -5 0
-7 -7 -4 -15z"/>
<path d="M1760 2061 c0 -5 5 -13 10 -16 6 -3 10 -2 10 4 0 5 -4 13 -10 16 -5
3 -10 2 -10 -4z"/>
<path d="M1735 1980 c-3 -5 -1 -10 4 -10 6 0 11 5 11 10 0 6 -2 10 -4 10 -3 0
-8 -4 -11 -10z"/>
<path d="M3544 1948 c1 -22 13 -38 29 -38 5 0 7 12 5 27 -4 35 -35 44 -34 11z"/>
<path d="M2583 1946 c-4 -7 -18 -18 -30 -25 -25 -13 -31 -41 -9 -41 7 0 19 7
26 15 7 8 27 15 45 15 41 0 47 7 27 31 -19 22 -48 25 -59 5z"/>
<path d="M3620 1883 c0 -9 40 -36 45 -31 2 2 -8 11 -21 21 -13 10 -24 14 -24
10z"/>
<path d="M3400 1849 c0 -24 4 -30 18 -27 10 2 18 14 20 31 3 22 -1 27 -17 27
-17 0 -21 -6 -21 -31z"/>
<path d="M2582 1848 c-21 -13 -32 -28 -31 -41 0 -12 3 -16 6 -10 3 9 10 10 23
3 15 -8 19 -5 24 15 3 13 15 25 26 27 20 3 20 3 2 15 -15 9 -25 7 -50 -9z"/>
<path d="M2720 1860 c0 -5 5 -10 11 -10 5 0 7 5 4 10 -3 6 -8 10 -11 10 -2 0
-4 -4 -4 -10z"/>
<path d="M3342 1831 c-11 -7 -10 -11 3 -24 20 -21 44 -12 38 14 -6 20 -20 24
-41 10z"/>
<path d="M3558 1833 c7 -3 16 -2 19 1 4 3 -2 6 -13 5 -11 0 -14 -3 -6 -6z"/>
<path d="M2627 1773 c-4 -3 -7 -11 -7 -17 0 -6 5 -5 12 2 6 6 9 14 7 17 -3 3
-9 2 -12 -2z"/>
<path d="M3237 1681 c3 -29 2 -51 -3 -50 -18 4 -44 -14 -44 -30 1 -14 3 -13
15 3 8 11 22 17 33 14 22 -6 44 8 60 39 17 31 15 46 -5 39 -10 -4 -25 2 -39
15 l-23 22 6 -52z"/>
<path d="M3420 1696 c0 -8 4 -17 8 -20 13 -8 35 11 28 23 -10 16 -36 14 -36
-3z"/>
<path d="M2490 1672 c0 -20 35 -62 50 -62 6 0 10 14 10 30 0 24 -6 33 -26 40
-33 13 -34 13 -34 -8z"/>
<path d="M2560 1605 c0 -17 35 -55 51 -55 28 0 23 12 -16 38 -19 12 -35 20
-35 17z"/>
<path d="M2463 1563 c-14 -5 -18 -83 -5 -83 15 0 32 24 32 45 0 27 -12 43 -27
38z"/>
<path d="M2784 1495 c-18 -15 -18 -15 5 -13 14 2 26 9 29 16 5 17 -10 15 -34
-3z"/>
<path d="M3143 1471 c-10 -16 -9 -20 12 -25 13 -3 31 -3 40 1 15 5 15 8 -6 24
-30 23 -32 23 -46 0z"/>
<path d="M3033 1472 c-13 -2 -23 -10 -23 -18 0 -19 39 -18 47 1 7 20 4 22 -24
17z"/>
<path d="M2625 1450 c-3 -5 -1 -10 4 -10 6 0 11 5 11 10 0 6 -2 10 -4 10 -3 0
-8 -4 -11 -10z"/>
<path d="M2360 1425 c0 -8 5 -15 10 -15 6 0 10 7 10 15 0 8 -4 15 -10 15 -5 0
-10 -7 -10 -15z"/>
<path d="M2670 1390 c0 -5 5 -10 11 -10 5 0 7 5 4 10 -3 6 -8 10 -11 10 -2 0
-4 -4 -4 -10z"/>
<path d="M2570 1358 c-14 -5 -35 -7 -47 -5 -33 6 -28 -8 12 -39 40 -31 60 -27
68 13 7 35 -1 43 -33 31z"/>
<path d="M2706 1333 c-6 -14 -5 -15 5 -6 7 7 10 15 7 18 -3 3 -9 -2 -12 -12z"/>
<path d="M2530 1250 c0 -9 39 -25 46 -18 2 3 -7 10 -21 16 -14 6 -25 7 -25 2z"/>
<path d="M2894 1239 c-7 -12 20 -39 38 -39 9 0 23 29 17 34 -14 12 -48 15 -55
5z"/>
<path d="M2758 1223 c6 -2 18 -2 25 0 6 3 1 5 -13 5 -14 0 -19 -2 -12 -5z"/>
<path d="M2816 1175 c-3 -9 0 -15 9 -15 16 0 20 16 6 24 -5 3 -11 -1 -15 -9z"/>
<path d="M2512 934 c1 -9 9 -19 16 -22 9 -3 13 2 10 14 -1 9 -9 19 -16 22 -9
3 -13 -2 -10 -14z"/>
<path d="M4100 1960 c0 -5 5 -10 11 -10 5 0 7 5 4 10 -3 6 -8 10 -11 10 -2 0
-4 -4 -4 -10z"/>
<path d="M2332 1780 c14 -22 24 -19 15 5 -4 8 -11 15 -17 15 -6 0 -6 -7 2 -20z"/>
<path d="M1793 1433 c-7 -3 -13 -12 -13 -21 0 -15 2 -15 17 1 18 18 16 27 -4
20z"/>
<path d="M3600 1299 c0 -5 5 -7 10 -4 6 3 10 8 10 11 0 2 -4 4 -10 4 -5 0 -10
-5 -10 -11z"/>
<path d="M3500 951 c0 -5 5 -13 10 -16 6 -3 10 -2 10 4 0 5 -4 13 -10 16 -5 3
-10 2 -10 -4z"/>
<path d="M3510 911 c0 -5 5 -13 10 -16 6 -3 10 -2 10 4 0 5 -4 13 -10 16 -5 3
-10 2 -10 -4z"/>
</g>
</svg>
